<svg id="Gradient" xmlns="http://www.w3.org/2000/svg" viewBox="0 0 1921 1081"><defs><style>.cls-1{opacity:0.79;}.cls-2{fill:#333;}.cls-3{opacity:0.1;}.cls-4{fill:none;stroke:#666;stroke-miterlimit:10;}</style></defs><g class="cls-1"><rect class="cls-2" x="0.5" y="0.5" width="1920" height="1080"/></g><g class="cls-3"><rect class="cls-4" x="0.5" y="0.5" width="1920" height="1080"/><line class="cls-4" x1="0.5" y1="1068.63" x2="1920.5" y2="1068.63"/><line class="cls-4" x1="0.5" y1="1056.76" x2="1920.5" y2="1056.76"/><line class="cls-4" x1="0.5" y1="1044.9" x2="1920.5" y2="1044.9"/><line class="cls-4" x1="0.5" y1="1033.03" x2="1920.5" y2="1033.03"/><line class="cls-4" x1="0.5" y1="1021.16" x2="1920.5" y2="1021.16"/><line class="cls-4" x1="0.5" y1="1009.29" x2="1920.5" y2="1009.29"/><line class="cls-4" x1="0.5" y1="997.42" x2="1920.5" y2="997.42"/><line class="cls-4" x1="0.5" y1="985.55" x2="1920.5" y2="985.55"/><line class="cls-4" x1="0.5" y1="973.69" x2="1920.5" y2="973.69"/><line class="cls-4" x1="0.5" y1="961.82" x2="1920.5" y2="961.82"/><line class="cls-4" x1="0.5" y1="949.95" x2="1920.5" y2="949.95"/><line class="cls-4" x1="0.5" y1="938.08" x2="1920.5" y2="938.08"/><line class="cls-4" x1="0.5" y1="926.21" x2="1920.5" y2="926.21"/><line class="cls-4" x1="0.5" y1="914.35" x2="1920.5" y2="914.35"/><line class="cls-4" x1="0.5" y1="902.48" x2="1920.5" y2="902.48"/><line class="cls-4" x1="0.5" y1="890.61" x2="1920.5" y2="890.61"/><line class="cls-4" x1="0.5" y1="878.74" x2="1920.5" y2="878.74"/><line class="cls-4" x1="0.5" y1="866.87" x2="1920.5" y2="866.87"/><line class="cls-4" x1="0.5" y1="855.01" x2="1920.5" y2="855.01"/><line class="cls-4" x1="0.5" y1="843.14" x2="1920.5" y2="843.14"/><line class="cls-4" x1="0.5" y1="831.27" x2="1920.5" y2="831.27"/><line class="cls-4" x1="0.5" y1="819.4" x2="1920.5" y2="819.4"/><line class="cls-4" x1="0.5" y1="807.53" x2="1920.5" y2="807.53"/><line class="cls-4" x1="0.5" y1="795.66" x2="1920.5" y2="795.66"/><line class="cls-4" x1="0.5" y1="783.8" x2="1920.5" y2="783.8"/><line class="cls-4" x1="0.5" y1="771.93" x2="1920.5" y2="771.93"/><line class="cls-4" x1="0.5" y1="760.06" x2="1920.5" y2="760.06"/><line class="cls-4" x1="0.5" y1="748.19" x2="1920.5" y2="748.19"/><line class="cls-4" x1="0.5" y1="736.32" x2="1920.5" y2="736.32"/><line class="cls-4" x1="0.5" y1="724.46" x2="1920.5" y2="724.46"/><line class="cls-4" x1="0.5" y1="712.59" x2="1920.5" y2="712.59"/><line class="cls-4" x1="0.5" y1="700.72" x2="1920.5" y2="700.72"/><line class="cls-4" x1="0.5" y1="688.85" x2="1920.5" y2="688.85"/><line class="cls-4" x1="0.5" y1="676.98" x2="1920.5" y2="676.98"/><line class="cls-4" x1="0.5" y1="665.12" x2="1920.5" y2="665.12"/><line class="cls-4" x1="0.5" y1="653.25" x2="1920.5" y2="653.25"/><line class="cls-4" x1="0.5" y1="641.38" x2="1920.5" y2="641.38"/><line class="cls-4" x1="0.5" y1="629.51" x2="1920.5" y2="629.51"/><line class="cls-4" x1="0.5" y1="617.64" x2="1920.5" y2="617.64"/><line class="cls-4" x1="0.5" y1="605.77" x2="1920.5" y2="605.77"/><line class="cls-4" x1="0.5" y1="593.91" x2="1920.5" y2="593.91"/><line class="cls-4" x1="0.5" y1="582.04" x2="1920.5" y2="582.04"/><line class="cls-4" x1="0.5" y1="570.17" x2="1920.5" y2="570.17"/><line class="cls-4" x1="0.5" y1="558.3" x2="1920.5" y2="558.3"/><line class="cls-4" x1="0.5" y1="546.43" x2="1920.5" y2="546.43"/><line class="cls-4" x1="0.5" y1="534.57" x2="1920.5" y2="534.57"/><line class="cls-4" x1="0.5" y1="522.7" x2="1920.5" y2="522.7"/><line class="cls-4" x1="0.5" y1="510.83" x2="1920.5" y2="510.83"/><line class="cls-4" x1="0.5" y1="498.96" x2="1920.5" y2="498.96"/><line class="cls-4" x1="0.5" y1="487.09" x2="1920.5" y2="487.09"/><line class="cls-4" x1="0.5" y1="475.23" x2="1920.5" y2="475.23"/><line class="cls-4" x1="0.5" y1="463.36" x2="1920.5" y2="463.36"/><line class="cls-4" x1="0.5" y1="451.49" x2="1920.5" y2="451.49"/><line class="cls-4" x1="0.5" y1="439.62" x2="1920.5" y2="439.62"/><line class="cls-4" x1="0.5" y1="427.75" x2="1920.5" y2="427.75"/><line class="cls-4" x1="0.5" y1="415.88" x2="1920.5" y2="415.88"/><line class="cls-4" x1="0.5" y1="404.02" x2="1920.5" y2="404.02"/><line class="cls-4" x1="0.5" y1="392.15" x2="1920.5" y2="392.15"/><line class="cls-4" x1="0.5" y1="380.28" x2="1920.5" y2="380.28"/><line class="cls-4" x1="0.5" y1="368.41" x2="1920.5" y2="368.41"/><line class="cls-4" x1="0.5" y1="356.54" x2="1920.5" y2="356.54"/><line class="cls-4" x1="0.5" y1="344.68" x2="1920.5" y2="344.68"/><line class="cls-4" x1="0.5" y1="332.81" x2="1920.5" y2="332.81"/><line class="cls-4" x1="0.5" y1="320.94" x2="1920.5" y2="320.94"/><line class="cls-4" x1="0.5" y1="309.07" x2="1920.5" y2="309.07"/><line class="cls-4" x1="0.5" y1="297.2" x2="1920.5" y2="297.2"/><line class="cls-4" x1="0.5" y1="285.34" x2="1920.5" y2="285.34"/><line class="cls-4" x1="0.5" y1="273.47" x2="1920.5" y2="273.47"/><line class="cls-4" x1="0.5" y1="261.6" x2="1920.5" y2="261.6"/><line class="cls-4" x1="0.5" y1="249.73" x2="1920.5" y2="249.73"/><line class="cls-4" x1="0.5" y1="237.86" x2="1920.5" y2="237.86"/><line class="cls-4" x1="0.5" y1="225.99" x2="1920.5" y2="225.99"/><line class="cls-4" x1="0.5" y1="214.13" x2="1920.5" y2="214.13"/><line class="cls-4" x1="0.5" y1="202.26" x2="1920.5" y2="202.26"/><line class="cls-4" x1="0.5" y1="190.39" x2="1920.5" y2="190.39"/><line class="cls-4" x1="0.5" y1="178.52" x2="1920.5" y2="178.52"/><line class="cls-4" x1="0.5" y1="166.65" x2="1920.5" y2="166.65"/><line class="cls-4" x1="0.5" y1="154.79" x2="1920.5" y2="154.79"/><line class="cls-4" x1="0.5" y1="142.92" x2="1920.5" y2="142.92"/><line class="cls-4" x1="0.5" y1="131.05" x2="1920.5" y2="131.05"/><line class="cls-4" x1="0.5" y1="119.18" x2="1920.5" y2="119.18"/><line class="cls-4" x1="0.5" y1="107.31" x2="1920.5" y2="107.31"/><line class="cls-4" x1="0.5" y1="95.45" x2="1920.5" y2="95.45"/><line class="cls-4" x1="0.5" y1="83.58" x2="1920.5" y2="83.58"/><line class="cls-4" x1="0.5" y1="71.71" x2="1920.5" y2="71.71"/><line class="cls-4" x1="0.5" y1="59.84" x2="1920.5" y2="59.84"/><line class="cls-4" x1="0.5" y1="47.97" x2="1920.5" y2="47.97"/><line class="cls-4" x1="0.5" y1="36.1" x2="1920.5" y2="36.1"/><line class="cls-4" x1="0.5" y1="24.24" x2="1920.5" y2="24.24"/><line class="cls-4" x1="0.5" y1="12.37" x2="1920.5" y2="12.37"/><line class="cls-4" x1="1908.57" y1="0.5" x2="1908.57" y2="1080.5"/><line class="cls-4" x1="1896.65" y1="0.5" x2="1896.65" y2="1080.5"/><line class="cls-4" x1="1884.72" y1="0.5" x2="1884.72" y2="1080.5"/><line class="cls-4" x1="1872.8" y1="0.5" x2="1872.8" y2="1080.5"/><line class="cls-4" x1="1860.87" y1="0.5" x2="1860.87" y2="1080.5"/><line class="cls-4" x1="1848.95" y1="0.5" x2="1848.95" y2="1080.5"/><line class="cls-4" x1="1837.02" y1="0.5" x2="1837.02" y2="1080.5"/><line class="cls-4" x1="1825.1" y1="0.5" x2="1825.1" y2="1080.5"/><line class="cls-4" x1="1813.17" y1="0.5" x2="1813.17" y2="1080.5"/><line class="cls-4" x1="1801.25" y1="0.5" x2="1801.25" y2="1080.5"/><line class="cls-4" x1="1789.32" y1="0.5" x2="1789.32" y2="1080.5"/><line class="cls-4" x1="1777.39" y1="0.5" x2="1777.39" y2="1080.5"/><line class="cls-4" x1="1765.47" y1="0.5" x2="1765.47" y2="1080.5"/><line class="cls-4" x1="1753.54" y1="0.5" x2="1753.54" y2="1080.5"/><line class="cls-4" x1="1741.62" y1="0.5" x2="1741.62" y2="1080.5"/><line class="cls-4" x1="1729.69" y1="0.5" x2="1729.69" y2="1080.5"/><line class="cls-4" x1="1717.77" y1="0.5" x2="1717.77" y2="1080.5"/><line class="cls-4" x1="1705.84" y1="0.5" x2="1705.84" y2="1080.5"/><line class="cls-4" x1="1693.92" y1="0.5" x2="1693.92" y2="1080.5"/><line class="cls-4" x1="1681.99" y1="0.5" x2="1681.99" y2="1080.5"/><line class="cls-4" x1="1670.07" y1="0.5" x2="1670.07" y2="1080.5"/><line class="cls-4" x1="1658.14" y1="0.5" x2="1658.14" y2="1080.5"/><line class="cls-4" x1="1646.21" y1="0.5" x2="1646.21" y2="1080.5"/><line class="cls-4" x1="1634.29" y1="0.5" x2="1634.29" y2="1080.5"/><line class="cls-4" x1="1622.36" y1="0.5" x2="1622.36" y2="1080.5"/><line class="cls-4" x1="1610.44" y1="0.5" x2="1610.44" y2="1080.5"/><line class="cls-4" x1="1598.51" y1="0.5" x2="1598.51" y2="1080.5"/><line class="cls-4" x1="1586.59" y1="0.5" x2="1586.59" y2="1080.5"/><line class="cls-4" x1="1574.66" y1="0.5" x2="1574.66" y2="1080.5"/><line class="cls-4" x1="1562.74" y1="0.5" x2="1562.74" y2="1080.5"/><line class="cls-4" x1="1550.81" y1="0.5" x2="1550.81" y2="1080.5"/><line class="cls-4" x1="1538.89" y1="0.5" x2="1538.89" y2="1080.5"/><line class="cls-4" x1="1526.96" y1="0.5" x2="1526.96" y2="1080.5"/><line class="cls-4" x1="1515.03" y1="0.5" x2="1515.03" y2="1080.5"/><line class="cls-4" x1="1503.11" y1="0.5" x2="1503.11" y2="1080.5"/><line class="cls-4" x1="1491.18" y1="0.5" x2="1491.18" y2="1080.5"/><line class="cls-4" x1="1479.26" y1="0.5" x2="1479.26" y2="1080.5"/><line class="cls-4" x1="1467.33" y1="0.5" x2="1467.33" y2="1080.5"/><line class="cls-4" x1="1455.41" y1="0.5" x2="1455.41" y2="1080.5"/><line class="cls-4" x1="1443.48" y1="0.5" x2="1443.48" y2="1080.5"/><line class="cls-4" x1="1431.56" y1="0.5" x2="1431.56" y2="1080.5"/><line class="cls-4" x1="1419.63" y1="0.5" x2="1419.63" y2="1080.5"/><line class="cls-4" x1="1407.7" y1="0.5" x2="1407.7" y2="1080.5"/><line class="cls-4" x1="1395.78" y1="0.5" x2="1395.78" y2="1080.5"/><line class="cls-4" x1="1383.85" y1="0.5" x2="1383.85" y2="1080.5"/><line class="cls-4" x1="1371.93" y1="0.5" x2="1371.93" y2="1080.5"/><line class="cls-4" x1="1360" y1="0.5" x2="1360" y2="1080.5"/><line class="cls-4" x1="1348.08" y1="0.5" x2="1348.08" y2="1080.5"/><line class="cls-4" x1="1336.15" y1="0.5" x2="1336.15" y2="1080.5"/><line class="cls-4" x1="1324.23" y1="0.5" x2="1324.23" y2="1080.5"/><line class="cls-4" x1="1312.3" y1="0.5" x2="1312.3" y2="1080.5"/><line class="cls-4" x1="1300.38" y1="0.5" x2="1300.38" y2="1080.5"/><line class="cls-4" x1="1288.45" y1="0.5" x2="1288.45" y2="1080.5"/><line class="cls-4" x1="1276.52" y1="0.5" x2="1276.52" y2="1080.5"/><line class="cls-4" x1="1264.6" y1="0.5" x2="1264.6" y2="1080.5"/><line class="cls-4" x1="1252.67" y1="0.5" x2="1252.67" y2="1080.5"/><line class="cls-4" x1="1240.75" y1="0.5" x2="1240.75" y2="1080.5"/><line class="cls-4" x1="1228.82" y1="0.5" x2="1228.82" y2="1080.5"/><line class="cls-4" x1="1216.9" y1="0.5" x2="1216.9" y2="1080.5"/><line class="cls-4" x1="1204.97" y1="0.5" x2="1204.97" y2="1080.5"/><line class="cls-4" x1="1193.05" y1="0.5" x2="1193.05" y2="1080.5"/><line class="cls-4" x1="1181.12" y1="0.5" x2="1181.12" y2="1080.5"/><line class="cls-4" x1="1169.2" y1="0.5" x2="1169.2" y2="1080.5"/><line class="cls-4" x1="1157.27" y1="0.5" x2="1157.27" y2="1080.5"/><line class="cls-4" x1="1145.34" y1="0.5" x2="1145.34" y2="1080.5"/><line class="cls-4" x1="1133.42" y1="0.5" x2="1133.42" y2="1080.5"/><line class="cls-4" x1="1121.49" y1="0.5" x2="1121.49" y2="1080.5"/><line class="cls-4" x1="1109.57" y1="0.5" x2="1109.57" y2="1080.5"/><line class="cls-4" x1="1097.64" y1="0.5" x2="1097.64" y2="1080.5"/><line class="cls-4" x1="1085.72" y1="0.5" x2="1085.72" y2="1080.5"/><line class="cls-4" x1="1073.79" y1="0.5" x2="1073.79" y2="1080.5"/><line class="cls-4" x1="1061.87" y1="0.5" x2="1061.87" y2="1080.5"/><line class="cls-4" x1="1049.94" y1="0.5" x2="1049.94" y2="1080.5"/><line class="cls-4" x1="1038.02" y1="0.5" x2="1038.02" y2="1080.5"/><line class="cls-4" x1="1026.09" y1="0.5" x2="1026.09" y2="1080.5"/><line class="cls-4" x1="1014.16" y1="0.5" x2="1014.16" y2="1080.5"/><line class="cls-4" x1="1002.24" y1="0.5" x2="1002.24" y2="1080.5"/><line class="cls-4" x1="990.31" y1="0.5" x2="990.31" y2="1080.5"/><line class="cls-4" x1="978.39" y1="0.5" x2="978.39" y2="1080.5"/><line class="cls-4" x1="966.46" y1="0.5" x2="966.46" y2="1080.5"/><line class="cls-4" x1="954.54" y1="0.5" x2="954.54" y2="1080.5"/><line class="cls-4" x1="942.61" y1="0.5" x2="942.61" y2="1080.5"/><line class="cls-4" x1="930.69" y1="0.5" x2="930.69" y2="1080.5"/><line class="cls-4" x1="918.76" y1="0.5" x2="918.76" y2="1080.5"/><line class="cls-4" x1="906.84" y1="0.5" x2="906.84" y2="1080.5"/><line class="cls-4" x1="894.91" y1="0.5" x2="894.91" y2="1080.5"/><line class="cls-4" x1="882.98" y1="0.5" x2="882.98" y2="1080.5"/><line class="cls-4" x1="871.06" y1="0.5" x2="871.06" y2="1080.5"/><line class="cls-4" x1="859.13" y1="0.5" x2="859.13" y2="1080.5"/><line class="cls-4" x1="847.21" y1="0.5" x2="847.21" y2="1080.5"/><line class="cls-4" x1="835.28" y1="0.5" x2="835.28" y2="1080.5"/><line class="cls-4" x1="823.36" y1="0.5" x2="823.36" y2="1080.5"/><line class="cls-4" x1="811.43" y1="0.5" x2="811.43" y2="1080.5"/><line class="cls-4" x1="799.51" y1="0.5" x2="799.51" y2="1080.5"/><line class="cls-4" x1="787.58" y1="0.5" x2="787.58" y2="1080.5"/><line class="cls-4" x1="775.66" y1="0.5" x2="775.66" y2="1080.5"/><line class="cls-4" x1="763.73" y1="0.5" x2="763.73" y2="1080.5"/><line class="cls-4" x1="751.8" y1="0.5" x2="751.8" y2="1080.5"/><line class="cls-4" x1="739.88" y1="0.5" x2="739.88" y2="1080.5"/><line class="cls-4" x1="727.95" y1="0.5" x2="727.95" y2="1080.5"/><line class="cls-4" x1="716.03" y1="0.5" x2="716.03" y2="1080.5"/><line class="cls-4" x1="704.1" y1="0.5" x2="704.1" y2="1080.5"/><line class="cls-4" x1="692.18" y1="0.5" x2="692.18" y2="1080.5"/><line class="cls-4" x1="680.25" y1="0.5" x2="680.25" y2="1080.5"/><line class="cls-4" x1="668.33" y1="0.5" x2="668.33" y2="1080.5"/><line class="cls-4" x1="656.4" y1="0.5" x2="656.4" y2="1080.5"/><line class="cls-4" x1="644.48" y1="0.5" x2="644.48" y2="1080.5"/><line class="cls-4" x1="632.55" y1="0.5" x2="632.55" y2="1080.5"/><line class="cls-4" x1="620.62" y1="0.5" x2="620.62" y2="1080.5"/><line class="cls-4" x1="608.7" y1="0.5" x2="608.7" y2="1080.5"/><line class="cls-4" x1="596.77" y1="0.5" x2="596.77" y2="1080.5"/><line class="cls-4" x1="584.85" y1="0.5" x2="584.85" y2="1080.5"/><line class="cls-4" x1="572.92" y1="0.5" x2="572.92" y2="1080.5"/><line class="cls-4" x1="561" y1="0.5" x2="561" y2="1080.5"/><line class="cls-4" x1="549.07" y1="0.5" x2="549.07" y2="1080.5"/><line class="cls-4" x1="537.15" y1="0.5" x2="537.15" y2="1080.5"/><line class="cls-4" x1="525.22" y1="0.5" x2="525.22" y2="1080.5"/><line class="cls-4" x1="513.3" y1="0.5" x2="513.3" y2="1080.5"/><line class="cls-4" x1="501.37" y1="0.5" x2="501.37" y2="1080.5"/><line class="cls-4" x1="489.44" y1="0.5" x2="489.44" y2="1080.5"/><line class="cls-4" x1="477.52" y1="0.5" x2="477.52" y2="1080.5"/><line class="cls-4" x1="465.59" y1="0.5" x2="465.59" y2="1080.5"/><line class="cls-4" x1="453.67" y1="0.5" x2="453.67" y2="1080.5"/><line class="cls-4" x1="441.74" y1="0.5" x2="441.74" y2="1080.5"/><line class="cls-4" x1="429.82" y1="0.5" x2="429.82" y2="1080.5"/><line class="cls-4" x1="417.89" y1="0.5" x2="417.89" y2="1080.5"/><line class="cls-4" x1="405.97" y1="0.5" x2="405.97" y2="1080.5"/><line class="cls-4" x1="394.04" y1="0.5" x2="394.04" y2="1080.5"/><line class="cls-4" x1="382.11" y1="0.5" x2="382.11" y2="1080.5"/><line class="cls-4" x1="370.19" y1="0.5" x2="370.19" y2="1080.5"/><line class="cls-4" x1="358.26" y1="0.5" x2="358.26" y2="1080.5"/><line class="cls-4" x1="346.34" y1="0.5" x2="346.34" y2="1080.5"/><line class="cls-4" x1="334.41" y1="0.5" x2="334.41" y2="1080.5"/><line class="cls-4" x1="322.49" y1="0.5" x2="322.49" y2="1080.5"/><line class="cls-4" x1="310.56" y1="0.5" x2="310.56" y2="1080.5"/><line class="cls-4" x1="298.64" y1="0.5" x2="298.64" y2="1080.5"/><line class="cls-4" x1="286.71" y1="0.5" x2="286.71" y2="1080.5"/><line class="cls-4" x1="274.79" y1="0.5" x2="274.79" y2="1080.5"/><line class="cls-4" x1="262.86" y1="0.5" x2="262.86" y2="1080.5"/><line class="cls-4" x1="250.93" y1="0.5" x2="250.93" y2="1080.5"/><line class="cls-4" x1="239.01" y1="0.5" x2="239.01" y2="1080.5"/><line class="cls-4" x1="227.08" y1="0.5" x2="227.08" y2="1080.5"/><line class="cls-4" x1="215.16" y1="0.5" x2="215.16" y2="1080.5"/><line class="cls-4" x1="203.23" y1="0.5" x2="203.23" y2="1080.5"/><line class="cls-4" x1="191.31" y1="0.5" x2="191.31" y2="1080.5"/><line class="cls-4" x1="179.38" y1="0.5" x2="179.38" y2="1080.5"/><line class="cls-4" x1="167.46" y1="0.5" x2="167.46" y2="1080.5"/><line class="cls-4" x1="155.53" y1="0.5" x2="155.53" y2="1080.5"/><line class="cls-4" x1="143.61" y1="0.5" x2="143.61" y2="1080.5"/><line class="cls-4" x1="131.68" y1="0.5" x2="131.68" y2="1080.5"/><line class="cls-4" x1="119.75" y1="0.5" x2="119.75" y2="1080.5"/><line class="cls-4" x1="107.83" y1="0.5" x2="107.83" y2="1080.5"/><line class="cls-4" x1="95.9" y1="0.5" x2="95.9" y2="1080.5"/><line class="cls-4" x1="83.98" y1="0.5" x2="83.98" y2="1080.5"/><line class="cls-4" x1="72.05" y1="0.5" x2="72.05" y2="1080.5"/><line class="cls-4" x1="60.13" y1="0.5" x2="60.13" y2="1080.5"/><line class="cls-4" x1="48.2" y1="0.5" x2="48.2" y2="1080.5"/><line class="cls-4" x1="36.28" y1="0.5" x2="36.28" y2="1080.5"/><line class="cls-4" x1="24.35" y1="0.5" x2="24.35" y2="1080.5"/><line class="cls-4" x1="12.43" y1="0.5" x2="12.43" y2="1080.5"/></g></svg>