<svg xmlns="http://www.w3.org/2000/svg" viewBox="0 0 1920 1005"><defs><style>.cls-1{fill:#070e20;}.cls-2{fill:none;}</style></defs><g id="Layer_1" data-name="Layer 1"><path class="cls-1" d="M1809,381l-17.88-17.88a13.68,13.68,0,0,1,0-19.35L1809,325.89h0L1919.5,215.42V180.8l-16,16a34.16,34.16,0,0,1-14.15,5.09h-93.86l41.78,41.78a13.68,13.68,0,0,1,0,19.35L1819.36,281a13.7,13.7,0,0,1-19.35,0L1696.45,177.39a13.71,13.71,0,0,1,0-19.35l17.89-17.89a13.56,13.56,0,0,1,6.46-3.61,13.6,13.6,0,0,1,7.53-2.27h93.22l-41-41a13.71,13.71,0,0,1,0-19.35L1798.45,56a13.69,13.69,0,0,1,19.34,0L1919.5,157.75V126.47L1811,18h0L1793.15.12c-.2-.2-.38-.41-.56-.62h-51.37a14,14,0,0,1-1.37,1.62L1722,19a13.57,13.57,0,0,1-8.71,4,13.55,13.55,0,0,1-5.44,1.14H1614l41.78,41.78a13.68,13.68,0,0,1,0,19.35l-17.88,17.88a13.68,13.68,0,0,1-19.35,0L1515-.45s0,0,0,0H1501l110.57,110.56a13.68,13.68,0,0,1,0,19.35l-17.89,17.89a13.69,13.69,0,0,1-19.34,0L1446,19h0L1428.15,1.12a14,14,0,0,1-1.37-1.62h-49.89a13.79,13.79,0,0,1-2,2.62L1357,20a13.57,13.57,0,0,1-8.71,4,13.55,13.55,0,0,1-5.44,1.14H1249l41.78,41.78a13.68,13.68,0,0,1,0,19.35l-17.88,17.88a13.68,13.68,0,0,1-19.35,0L1150,.55c-.34-.34-.65-.69-1-1h-14l111.57,111.56a13.68,13.68,0,0,1,0,19.35l-17.89,17.89a13.69,13.69,0,0,1-19.34,0L1081,20h0L1063.15,2.12a13.79,13.79,0,0,1-2-2.62h-48.67a13.88,13.88,0,0,1-2.59,3.62L992,21a13.57,13.57,0,0,1-8.71,4,13.55,13.55,0,0,1-5.44,1.14H884l41.78,41.78a13.69,13.69,0,0,1,0,19.35l-17.88,17.88a13.68,13.68,0,0,1-19.35,0L785,1.55a13.45,13.45,0,0,1-1.68-2H769L881.56,112.06a13.68,13.68,0,0,1,0,19.35L863.67,149.3a13.69,13.69,0,0,1-19.34,0L716,21h0L698.15,3.12A13.88,13.88,0,0,1,695.56-.5H644.44a13.88,13.88,0,0,1-2.59,3.62L624,21a13.57,13.57,0,0,1-8.71,4,13.55,13.55,0,0,1-5.44,1.14H516l41.78,41.78a13.69,13.69,0,0,1,0,19.35l-17.88,17.88a13.68,13.68,0,0,1-19.35,0L417,1.55a13.45,13.45,0,0,1-1.68-2H401L513.56,112.06a13.68,13.68,0,0,1,0,19.35L495.67,149.3a13.69,13.69,0,0,1-19.34,0L348,21h0L330.15,3.12A13.88,13.88,0,0,1,327.56-.5H279.89a13.65,13.65,0,0,1-3,4.62L259,22a13.57,13.57,0,0,1-8.71,4,13.55,13.55,0,0,1-5.44,1.14H151l41.78,41.78a13.69,13.69,0,0,1,0,19.35l-17.88,17.88a13.68,13.68,0,0,1-19.35,0L52,2.55a13.61,13.61,0,0,1-2.29-3H35L148.56,113.06a13.68,13.68,0,0,1,0,19.35L130.67,150.3a13.69,13.69,0,0,1-19.34,0L-.5,38.47V69.75L93.35,163.6a13.69,13.69,0,0,1,0,19.35L75.47,200.84a13.62,13.62,0,0,1-8.71,4,13.72,13.72,0,0,1-5.44,1.13H-.5v32l9.74,9.74a13.69,13.69,0,0,1,0,19.35L-.5,276.8v34.62L109.33,201.59a13.69,13.69,0,0,1,19.34,0l17.89,17.89a13.66,13.66,0,0,1,0,19.34L27.94,357.44,146.56,476.06a13.68,13.68,0,0,1,0,19.35L128.67,513.3a13.69,13.69,0,0,1-19.34,0L-.5,403.47v31.28L91.35,526.6a13.69,13.69,0,0,1,0,19.35L73.47,563.84a13.62,13.62,0,0,1-8.71,4,13.72,13.72,0,0,1-5.44,1.13H-.5v34l7.74,7.74a13.69,13.69,0,0,1,0,19.35L-.5,637.8v30.62L109.33,558.59a13.66,13.66,0,0,1,19.34,0l17.89,17.89a13.66,13.66,0,0,1,0,19.34L27.94,714.44,146.56,833.06a13.68,13.68,0,0,1,0,19.35L128.67,870.3a13.69,13.69,0,0,1-19.34,0L-.5,760.47v31.28L91.35,883.6a13.69,13.69,0,0,1,0,19.35L73.47,920.84a13.62,13.62,0,0,1-8.71,4,13.72,13.72,0,0,1-5.44,1.13H-.5v34l7.74,7.74a13.69,13.69,0,0,1,0,19.35L-.5,994.8v9.7H24.42l82.91-82.91a13.66,13.66,0,0,1,19.34,0l17.89,17.89a13.66,13.66,0,0,1,0,19.34L98.88,1004.5h36.24l-3.06-3.06a13.66,13.66,0,0,1,0-19.34l17.88-17.89a13.68,13.68,0,0,1,19.35,0l40.29,40.29H247.2l-84.67-84.66L144.65,902a13.69,13.69,0,0,1,0-19.35L290.83,736.43a13.66,13.66,0,0,1,19.34,0l17.89,17.88a13.68,13.68,0,0,1,0,19.35L209.44,892.28,321.66,1004.5h14L335,1004,231.45,900.39a13.68,13.68,0,0,1,0-19.35l17.89-17.89a13.56,13.56,0,0,1,6.46-3.61,13.6,13.6,0,0,1,7.53-2.27h93.22l-41-41a13.71,13.71,0,0,1,0-19.35L333.44,779a13.7,13.7,0,0,1,19.35,0L456.35,882.6a13.69,13.69,0,0,1,0,19.35l-17.88,17.89a13.62,13.62,0,0,1-8.71,4,13.72,13.72,0,0,1-5.44,1.13H330.46l41.78,41.78a13.69,13.69,0,0,1,0,19.35L354.36,1004l-.61.55h34.67l83.91-83.91a13.66,13.66,0,0,1,19.34,0l17.89,17.89a13.66,13.66,0,0,1,0,19.34l-46.68,46.68h38.24l-4.06-4.06a13.66,13.66,0,0,1,0-19.34l17.88-17.89a13.68,13.68,0,0,1,19.35,0l41.29,41.29H615.2l-84.67-84.66L512.65,902a13.69,13.69,0,0,1,0-19.35L658.83,736.43a13.66,13.66,0,0,1,19.34,0l17.89,17.88a13.68,13.68,0,0,1,0,19.35L577.44,892.28,689.66,1004.5h14L703,1004,599.45,900.39a13.68,13.68,0,0,1,0-19.35l17.89-17.89a35.28,35.28,0,0,1,14-5.88h93.22l-41-41a13.71,13.71,0,0,1,0-19.35L701.44,779a13.7,13.7,0,0,1,19.35,0L824.35,882.6a13.69,13.69,0,0,1,0,19.35l-17.88,17.89a34.16,34.16,0,0,1-14.15,5.09H698.46l41.78,41.78a13.69,13.69,0,0,1,0,19.35L722.36,1004l-.61.55h34.67l83.91-83.91a13.66,13.66,0,0,1,19.34,0l17.89,17.89a13.66,13.66,0,0,1,0,19.34l-46.68,46.68h38.24l-4.06-4.06a13.66,13.66,0,0,1,0-19.34l17.88-17.89a13.68,13.68,0,0,1,19.35,0l41.29,41.29H981.2l-85.67-85.66L877.65,901a13.69,13.69,0,0,1,0-19.35l146.18-146.17a13.66,13.66,0,0,1,19.34,0l17.89,17.88a13.68,13.68,0,0,1,0,19.35L942.44,891.28l113.22,113.22h14.22A13.74,13.74,0,0,1,1068,1003L964.45,899.39a13.71,13.71,0,0,1,0-19.35l17.89-17.89a35.28,35.28,0,0,1,14-5.88h93.22l-41-41a13.71,13.71,0,0,1,0-19.35L1066.45,778a13.69,13.69,0,0,1,19.34,0L1189.35,881.6a13.68,13.68,0,0,1,0,19.35l-17.88,17.89a34.16,34.16,0,0,1-14.15,5.09h-93.86l41.78,41.78a13.68,13.68,0,0,1,0,19.35L1087.36,1003a13.74,13.74,0,0,1-1.87,1.55h34.93l84.91-84.91a13.66,13.66,0,0,1,19.34,0l17.89,17.89a13.68,13.68,0,0,1,0,19.35l-47.68,47.67h40.24l-5.06-5.06a13.66,13.66,0,0,1,0-19.34L1248,962.21a13.66,13.66,0,0,1,19.34,0l42.29,42.29h37.62l-86.67-86.66L1242.65,900a13.18,13.18,0,0,1-1.72-2.09,13.55,13.55,0,0,1-2.29-7.58h0a13.61,13.61,0,0,1,2.29-7.59,14.15,14.15,0,0,1,1.72-2.09l17.88-17.88,128.3-128.29a13.66,13.66,0,0,1,19.34,0l17.89,17.88a13.68,13.68,0,0,1,0,19.35L1307.44,890.28l114.22,114.22h14.9A14,14,0,0,1,1433,1002L1329.45,898.39a13.71,13.71,0,0,1,0-19.35l17.89-17.89a35.28,35.28,0,0,1,14-5.88h93.22l-41-41a13.71,13.71,0,0,1,0-19.35L1431.45,777a13.69,13.69,0,0,1,19.34,0L1554.35,880.6a13.68,13.68,0,0,1,0,19.35l-17.88,17.89a34.16,34.16,0,0,1-14.15,5.09h-93.86l41.78,41.78a13.68,13.68,0,0,1,0,19.35L1452.36,1002a14,14,0,0,1-3.55,2.55h35.61l85.91-85.91a13.66,13.66,0,0,1,19.34,0l17.89,17.89a13.68,13.68,0,0,1,0,19.35l-48.68,48.67h42.24l-6.06-6.06a13.66,13.66,0,0,1,0-19.34L1613,961.21a13.66,13.66,0,0,1,19.34,0l43.29,43.29h37.62l-87.67-87.66L1607.65,899a13.18,13.18,0,0,1-1.72-2.09,13.55,13.55,0,0,1-2.29-7.58h0a13.61,13.61,0,0,1,2.29-7.59,14.15,14.15,0,0,1,1.72-2.09l17.88-17.88,128.3-128.29a13.66,13.66,0,0,1,19.34,0l17.89,17.88a13.68,13.68,0,0,1,0,19.35L1672.44,889.28l115.22,115.22h16.58A13.6,13.6,0,0,1,1798,1001L1694.45,897.39a13.71,13.71,0,0,1,0-19.35l17.89-17.89a35.28,35.28,0,0,1,14-5.88h93.22l-41-41a13.71,13.71,0,0,1,0-19.35L1796.45,776a13.69,13.69,0,0,1,19.34,0L1919.35,879.6l.15.17v-31.3L1809.05,738l0,0-17.88-17.88a13.68,13.68,0,0,1,0-19.35L1809,682.89,1919.5,572.42V541.79l-.15.16-17.88,17.89a34.16,34.16,0,0,1-14.15,5.09h-93.86l41.78,41.78a13.68,13.68,0,0,1,0,19.35L1817.36,644a13.7,13.7,0,0,1-19.35,0L1694.45,540.39a13.71,13.71,0,0,1,0-19.35l17.89-17.89a35.28,35.28,0,0,1,14-5.88h93.22l-41-41a13.71,13.71,0,0,1,0-19.35L1796.45,419a13.69,13.69,0,0,1,19.34,0L1919.35,522.6l.15.17v-31.3L1809,381ZM1609.65,159.6l17.88-17.88,128.3-128.29a13.66,13.66,0,0,1,19.34,0l17.89,17.88a13.68,13.68,0,0,1,0,19.35L1674.44,169.28,1793.06,287.9a13.68,13.68,0,0,1,0,19.35l-17.89,17.88a13.66,13.66,0,0,1-19.34,0L1627.54,196.85h0L1609.65,179a13.68,13.68,0,0,1,0-19.35Zm44.09,269.28a13.68,13.68,0,0,1,0,19.35l-17.88,17.88a13.68,13.68,0,0,1-19.35,0L1513,362.55a13.69,13.69,0,0,1,0-19.34l17.89-17.89a35.28,35.28,0,0,1,14-5.88h93.22l-41-41a13.69,13.69,0,0,1,0-19.34L1615,241.21a13.66,13.66,0,0,1,19.34,0l103.56,103.56a13.68,13.68,0,0,1,0,19.35L1720,382a34.44,34.44,0,0,1-14.15,5.1H1612ZM1582,194.59a13.59,13.59,0,0,1,9.67,4l17.89,17.89a13.68,13.68,0,0,1,0,19.35L1490.94,354.44l118.62,118.62a13.68,13.68,0,0,1,0,19.35l-17.89,17.89a13.69,13.69,0,0,1-19.34,0L1444,382h0l-17.88-17.88a13.68,13.68,0,0,1,0-19.35L1444,326.89h0l128.3-128.3A13.59,13.59,0,0,1,1582,194.59ZM1470.24,607.71a13.68,13.68,0,0,1,0,19.35L1452.36,645a13.7,13.7,0,0,1-19.35,0L1329.45,541.39a13.71,13.71,0,0,1,0-19.35l17.89-17.89a35.28,35.28,0,0,1,14-5.88h93.22l-41-41a13.71,13.71,0,0,1,0-19.35L1431.45,420a13.69,13.69,0,0,1,19.34,0L1554.35,523.6a13.68,13.68,0,0,1,0,19.35l-17.88,17.89a34.16,34.16,0,0,1-14.15,5.09h-93.86ZM1443.12,53a13.59,13.59,0,0,1,9.67,4L1556.35,160.6a13.68,13.68,0,0,1,0,19.35l-17.88,17.89a34.16,34.16,0,0,1-14.15,5.09h-93.86l41.78,41.78a13.68,13.68,0,0,1,0,19.35L1454.36,282a13.7,13.7,0,0,1-19.35,0L1331.45,178.39a13.71,13.71,0,0,1,0-19.35l17.89-17.89a13.56,13.56,0,0,1,6.46-3.61,13.6,13.6,0,0,1,7.53-2.27h93.22l-41-41a13.71,13.71,0,0,1,0-19.35L1433.45,57A13.58,13.58,0,0,1,1443.12,53ZM1244.65,160.6l17.88-17.88,128.3-128.29a13.66,13.66,0,0,1,19.34,0l17.89,17.88a13.68,13.68,0,0,1,0,19.35L1309.44,170.28,1428.06,288.9a13.68,13.68,0,0,1,0,19.35l-17.89,17.88a13.66,13.66,0,0,1-19.34,0L1262.54,197.85h0L1244.65,180a13.68,13.68,0,0,1,0-19.35Zm44.09,269.28a13.68,13.68,0,0,1,0,19.35l-17.88,17.88a13.68,13.68,0,0,1-19.35,0L1148,363.55a13.69,13.69,0,0,1,0-19.34l17.89-17.89a35.28,35.28,0,0,1,14-5.88h93.22l-41-41a13.69,13.69,0,0,1,0-19.34L1250,242.21a13.66,13.66,0,0,1,19.34,0l103.56,103.56a13.68,13.68,0,0,1,0,19.35L1355,383a34.44,34.44,0,0,1-14.15,5.1H1247ZM1217,195.59a13.59,13.59,0,0,1,9.67,4l17.89,17.89a13.68,13.68,0,0,1,0,19.35L1125.94,355.44l118.62,118.62a13.68,13.68,0,0,1,0,19.35l-17.89,17.89a13.69,13.69,0,0,1-19.34,0L1079,383h0l-17.88-17.88a13.68,13.68,0,0,1,0-19.35L1079,327.89h0l128.3-128.3A13.59,13.59,0,0,1,1217,195.59ZM1105.24,608.71a13.68,13.68,0,0,1,0,19.35L1087.36,646a13.7,13.7,0,0,1-19.35,0L964.45,542.39a13.71,13.71,0,0,1,0-19.35l17.89-17.89a35.28,35.28,0,0,1,14-5.88h93.22l-41-41a13.71,13.71,0,0,1,0-19.35L1066.45,421a13.69,13.69,0,0,1,19.34,0L1189.35,524.6a13.68,13.68,0,0,1,0,19.35l-17.88,17.89a34.16,34.16,0,0,1-14.15,5.09h-93.86ZM1078.12,54a13.59,13.59,0,0,1,9.67,4L1191.35,161.6a13.68,13.68,0,0,1,0,19.35l-17.88,17.89a34.16,34.16,0,0,1-14.15,5.09h-93.86l41.78,41.78a13.68,13.68,0,0,1,0,19.35L1089.36,283a13.7,13.7,0,0,1-19.35,0L966.45,179.39a13.71,13.71,0,0,1,0-19.35l17.89-17.89a13.56,13.56,0,0,1,6.46-3.61,13.6,13.6,0,0,1,7.53-2.27h93.22l-41-41a13.71,13.71,0,0,1,0-19.35L1068.45,58A13.58,13.58,0,0,1,1078.12,54ZM879.65,161.6l17.88-17.88h0L1025.83,15.43a13.66,13.66,0,0,1,19.34,0l17.89,17.88a13.68,13.68,0,0,1,0,19.35L944.44,171.28,1063.06,289.9a13.68,13.68,0,0,1,0,19.35l-17.89,17.88a13.66,13.66,0,0,1-19.34,0L897.54,198.84h0L879.65,181a13.68,13.68,0,0,1,0-19.35Zm44.09,269.28a13.69,13.69,0,0,1,0,19.35l-17.88,17.88a13.68,13.68,0,0,1-19.35,0L783,364.55a13.69,13.69,0,0,1,0-19.34l17.88-17.89a35.4,35.4,0,0,1,14-5.88h93.23l-41-41a13.69,13.69,0,0,1,0-19.34l17.88-17.89a13.68,13.68,0,0,1,19.35,0l103.56,103.56a13.68,13.68,0,0,1,0,19.35L990,384a34.44,34.44,0,0,1-14.15,5.1H882ZM852,196.59a13.59,13.59,0,0,1,9.67,4l17.89,17.89a13.66,13.66,0,0,1,0,19.34L760.94,356.44,879.56,475.06a13.68,13.68,0,0,1,0,19.35L861.67,512.3a13.69,13.69,0,0,1-19.34,0L714,384h0l-17.88-17.88a13.68,13.68,0,0,1,0-19.35L714,328.89h0L842.33,200.59A13.59,13.59,0,0,1,852,196.59ZM740.24,609.71a13.69,13.69,0,0,1,0,19.35L722.36,647A13.7,13.7,0,0,1,703,647L599.45,543.39a13.68,13.68,0,0,1,0-19.35l17.89-17.89a35.28,35.28,0,0,1,14-5.88h93.22l-41-41a13.68,13.68,0,0,1,0-19.35L701.44,422a13.7,13.7,0,0,1,19.35,0L824.35,525.6a13.69,13.69,0,0,1,0,19.35l-17.88,17.89a34.16,34.16,0,0,1-14.15,5.09H698.46ZM713.12,55a13.59,13.59,0,0,1,9.67,4L826.35,162.6a13.69,13.69,0,0,1,0,19.35l-17.88,17.89a34.16,34.16,0,0,1-14.15,5.09H700.46l41.78,41.78a13.69,13.69,0,0,1,0,19.35L724.36,284A13.7,13.7,0,0,1,705,284L601.45,180.39a13.68,13.68,0,0,1,0-19.35l17.88-17.89a13.64,13.64,0,0,1,6.47-3.61,13.6,13.6,0,0,1,7.53-2.27h93.22l-41-41a13.68,13.68,0,0,1,0-19.35L703.44,59A13.62,13.62,0,0,1,713.12,55ZM514.65,162.6l17.88-17.88h0L660.83,16.43a13.66,13.66,0,0,1,19.34,0l17.89,17.88a13.71,13.71,0,0,1,0,19.35L579.44,172.28,698.06,290.9a13.68,13.68,0,0,1,0,19.35l-17.89,17.88a13.66,13.66,0,0,1-19.34,0L532.54,199.84h0L514.65,182a13.68,13.68,0,0,1,0-19.35Zm41.09,268.28a13.69,13.69,0,0,1,0,19.35l-17.88,17.88a13.68,13.68,0,0,1-19.35,0L415,364.55a13.69,13.69,0,0,1,0-19.34l17.88-17.89a35.4,35.4,0,0,1,14-5.88h93.22l-41-41a13.69,13.69,0,0,1,0-19.34l17.88-17.89a13.68,13.68,0,0,1,19.35,0L639.85,346.77a13.68,13.68,0,0,1,0,19.35L622,384a34.44,34.44,0,0,1-14.15,5.1H514ZM484,196.59a13.59,13.59,0,0,1,9.67,4l17.89,17.89a13.66,13.66,0,0,1,0,19.34L392.94,356.44,511.56,475.06a13.68,13.68,0,0,1,0,19.35L493.67,512.3a13.69,13.69,0,0,1-19.34,0L346,384h0l-17.88-17.88a13.68,13.68,0,0,1,0-19.35L346,328.89h0L474.33,200.59A13.59,13.59,0,0,1,484,196.59ZM372.24,609.71a13.69,13.69,0,0,1,0,19.35L354.36,647A13.7,13.7,0,0,1,335,647L231.45,543.39a13.68,13.68,0,0,1,0-19.35l17.89-17.89a13.56,13.56,0,0,1,6.46-3.61,13.6,13.6,0,0,1,7.53-2.27h93.22l-41-41a13.68,13.68,0,0,1,0-19.35L333.44,422a13.7,13.7,0,0,1,19.35,0L456.35,525.6a13.69,13.69,0,0,1,0,19.35l-17.88,17.89a13.62,13.62,0,0,1-8.71,4,13.72,13.72,0,0,1-5.44,1.13H330.46ZM345.12,55a13.59,13.59,0,0,1,9.67,4L458.35,162.6a13.69,13.69,0,0,1,0,19.35l-17.88,17.89a13.62,13.62,0,0,1-8.71,4,13.72,13.72,0,0,1-5.44,1.13H332.46l41.78,41.78a13.69,13.69,0,0,1,0,19.35L356.36,284A13.7,13.7,0,0,1,337,284L233.45,180.39a13.68,13.68,0,0,1,0-19.35l17.88-17.89a13.64,13.64,0,0,1,6.47-3.61,13.6,13.6,0,0,1,7.53-2.27h93.22l-41-41a13.68,13.68,0,0,1,0-19.35L335.44,59A13.62,13.62,0,0,1,345.12,55ZM146.65,182a13.68,13.68,0,0,1,0-19.35l17.88-17.88h0L292.83,16.43a13.66,13.66,0,0,1,19.34,0l17.89,17.88a13.71,13.71,0,0,1,0,19.35L211.44,172.28,330.06,290.9a13.68,13.68,0,0,1,0,19.35l-17.89,17.88a13.66,13.66,0,0,1-19.34,0L164.54,199.84h0ZM50,365.55a13.69,13.69,0,0,1,0-19.34l17.88-17.89a13.55,13.55,0,0,1,6.47-3.61,13.6,13.6,0,0,1,7.53-2.27h93.22l-41-41a13.69,13.69,0,0,1,0-19.34l17.88-17.89a13.68,13.68,0,0,1,19.35,0L274.85,347.77a13.68,13.68,0,0,1,0,19.35L257,385a13.57,13.57,0,0,1-8.71,4,13.55,13.55,0,0,1-5.44,1.14H149l41.78,41.78a13.69,13.69,0,0,1,0,19.35l-17.88,17.88a13.68,13.68,0,0,1-19.35,0Zm224.9,358.57L257,742a13.57,13.57,0,0,1-8.71,4,13.55,13.55,0,0,1-5.44,1.14H149l41.78,41.78a13.68,13.68,0,0,1,0,19.35l-17.88,17.88a13.68,13.68,0,0,1-19.35,0L50,722.55a13.66,13.66,0,0,1,0-19.34l17.89-17.89a13.48,13.48,0,0,1,6.46-3.61,13.6,13.6,0,0,1,7.53-2.27h93.22l-41-41a13.66,13.66,0,0,1,0-19.34l17.88-17.89a13.68,13.68,0,0,1,19.35,0L274.85,704.77a13.68,13.68,0,0,1,0,19.35Zm25.65-29a13.6,13.6,0,0,1-9.67-4L162.53,562.84,144.65,545a13.69,13.69,0,0,1,0-19.35L290.83,379.43a13.66,13.66,0,0,1,19.34,0l17.89,17.88a13.71,13.71,0,0,1,0,19.35L209.44,535.28,328.06,653.9a13.68,13.68,0,0,1,0,19.35l-17.89,17.88A13.6,13.6,0,0,1,300.5,695.14ZM511.56,851.41,493.67,869.3a13.69,13.69,0,0,1-19.34,0L346,741h0l-17.88-17.88a13.53,13.53,0,0,1-3.42-5.69,13.7,13.7,0,0,1,3.42-13.66L346,685.89l128.3-128.3a13.66,13.66,0,0,1,19.34,0l17.89,17.89a13.66,13.66,0,0,1,0,19.34L392.94,713.44,511.56,832.06a13.68,13.68,0,0,1,0,19.35ZM639.85,723.12,622,741a34.44,34.44,0,0,1-14.15,5.1H514l41.78,41.78a13.68,13.68,0,0,1,0,19.35l-17.88,17.88a13.68,13.68,0,0,1-19.35,0L415,721.55a13.66,13.66,0,0,1,0-19.34l17.89-17.89a35.28,35.28,0,0,1,14-5.88h93.22l-41-41a13.66,13.66,0,0,1,0-19.34l17.88-17.89a13.68,13.68,0,0,1,19.35,0L639.85,703.77a13.68,13.68,0,0,1,0,19.35Zm28.65-28a13.6,13.6,0,0,1-9.67-4L530.53,562.84,512.65,545a13.69,13.69,0,0,1,0-19.35L658.83,379.43a13.66,13.66,0,0,1,19.34,0l17.89,17.88a13.71,13.71,0,0,1,0,19.35L577.44,535.28,696.06,653.9a13.68,13.68,0,0,1,0,19.35l-17.89,17.88A13.6,13.6,0,0,1,668.5,695.14ZM879.56,851.41,861.67,869.3a13.69,13.69,0,0,1-19.34,0L714,741h0l-17.88-17.88a13.53,13.53,0,0,1-3.42-5.69,13.7,13.7,0,0,1,3.42-13.66L714,685.89l128.3-128.3a13.66,13.66,0,0,1,19.34,0l17.89,17.89a13.66,13.66,0,0,1,0,19.34L760.94,713.44,879.56,832.06a13.68,13.68,0,0,1,0,19.35Zm128.29-128.29L990,741a34.44,34.44,0,0,1-14.15,5.1H882l41.78,41.78a13.68,13.68,0,0,1,0,19.35l-17.88,17.88a13.68,13.68,0,0,1-19.35,0L783,721.55a13.66,13.66,0,0,1,0-19.34l17.89-17.89a35.28,35.28,0,0,1,14-5.88h93.22l-41-41a13.66,13.66,0,0,1,0-19.34l17.88-17.89a13.68,13.68,0,0,1,19.35,0l103.56,103.56a13.68,13.68,0,0,1,0,19.35Zm25.65-29a13.6,13.6,0,0,1-9.67-4L895.53,561.84,877.65,544a13.69,13.69,0,0,1,0-19.35l146.18-146.17a13.66,13.66,0,0,1,19.34,0l17.89,17.88a13.68,13.68,0,0,1,0,19.35L942.44,534.28,1061.06,652.9a13.68,13.68,0,0,1,0,19.35l-17.89,17.88A13.6,13.6,0,0,1,1033.5,694.14Zm211.06,156.27-17.89,17.89a13.69,13.69,0,0,1-19.34,0L1079.05,740l0,0-17.88-17.88a13.68,13.68,0,0,1,0-19.35L1079,684.89l128.3-128.3a13.66,13.66,0,0,1,19.34,0l17.89,17.89a13.68,13.68,0,0,1,0,19.35L1125.94,712.44l118.62,118.62a13.68,13.68,0,0,1,0,19.35Zm128.29-128.29L1355,740a34.44,34.44,0,0,1-14.15,5.1H1247l41.78,41.78a13.68,13.68,0,0,1,0,19.35l-17.88,17.88a13.68,13.68,0,0,1-19.35,0L1148,720.55a13.66,13.66,0,0,1,0-19.34l17.89-17.89a35.28,35.28,0,0,1,14-5.88h93.22l-41-41a13.66,13.66,0,0,1,0-19.34L1250,599.21a13.66,13.66,0,0,1,19.34,0l103.56,103.56a13.68,13.68,0,0,1,0,19.35Zm25.65-29a13.6,13.6,0,0,1-9.67-4l-128.3-128.29L1242.65,543a13.18,13.18,0,0,1-1.72-2.09,13.55,13.55,0,0,1-2.29-7.58h0a13.61,13.61,0,0,1,2.29-7.59,14.15,14.15,0,0,1,1.72-2.09l17.88-17.88,128.3-128.29a13.66,13.66,0,0,1,19.34,0l17.89,17.88a13.68,13.68,0,0,1,0,19.35L1307.44,533.28,1426.06,651.9a13.68,13.68,0,0,1,0,19.35l-17.89,17.88A13.6,13.6,0,0,1,1398.5,693.14Zm211.06,156.27-17.89,17.89a13.69,13.69,0,0,1-19.34,0L1444.05,739l0,0-17.88-17.88a13.68,13.68,0,0,1,0-19.35L1444,683.89l128.3-128.3a13.66,13.66,0,0,1,19.34,0l17.89,17.89a13.68,13.68,0,0,1,0,19.35L1490.94,711.44l118.62,118.62a13.68,13.68,0,0,1,0,19.35Zm128.29-128.29L1720,739a34.44,34.44,0,0,1-14.15,5.1H1612l41.78,41.78a13.68,13.68,0,0,1,0,19.35l-17.88,17.88a13.68,13.68,0,0,1-19.35,0L1513,719.55a13.66,13.66,0,0,1,0-19.34l17.89-17.89a35.28,35.28,0,0,1,14-5.88h93.22l-41-41a13.66,13.66,0,0,1,0-19.34L1615,598.21a13.66,13.66,0,0,1,19.34,0l103.56,103.56a13.68,13.68,0,0,1,0,19.35Zm53.21-307.46L1672.44,532.28,1791.06,650.9a13.68,13.68,0,0,1,0,19.35l-17.89,17.88a13.66,13.66,0,0,1-19.34,0l-128.3-128.29L1607.65,542a13.18,13.18,0,0,1-1.72-2.09,13.55,13.55,0,0,1-2.29-7.58h0a13.61,13.61,0,0,1,2.29-7.59,14.15,14.15,0,0,1,1.72-2.09l17.88-17.88,128.3-128.29a13.66,13.66,0,0,1,19.34,0l17.89,17.88a13.68,13.68,0,0,1,0,19.35Z"/><path class="cls-1" d="M1878,342.21l17.89-17.89a35.28,35.28,0,0,1,14-5.88h9.67V289.88l-63.56,63.56L1919.5,417V403.1L1878,361.55A13.69,13.69,0,0,1,1878,342.21Z"/><polygon class="cls-1" points="1919.5 38.1 1880.9 -0.5 1866.99 -0.5 1919.5 52.01 1919.5 38.1"/><path class="cls-1" d="M1919.5,774V760.1L1878,718.55a13.66,13.66,0,0,1,0-19.34l17.89-17.89a35.28,35.28,0,0,1,14-5.88h9.67V646.88l-63.56,63.56Z"/><path class="cls-1" d="M1901.47,916.84a34.16,34.16,0,0,1-14.15,5.09h-93.86l41.78,41.78a13.68,13.68,0,0,1,0,19.35L1817.36,1001a13.6,13.6,0,0,1-6.23,3.55h37.29l71.08-71.08V898.79l-.15.16Z"/></g><g id="Layer_5" data-name="Layer 5"><path class="cls-1" d="M.38,329.89l25.44,25.43L144.44,236.7a10.68,10.68,0,0,0,0-15.1l-17.89-17.89a10.68,10.68,0,0,0-15.1,0L-.5,315.66v13.43A11,11,0,0,1,.38,329.89Z"/><path class="cls-1" d="M-.5,385.8v13.43l112,112a10.68,10.68,0,0,0,15.1,0l17.89-17.89a10.68,10.68,0,0,0,0-15.1L25.82,359.57.38,385C.1,385.28-.2,385.55-.5,385.8Z"/><polygon class="cls-1" points="-0.5 381.64 23.7 357.44 -0.5 333.25 -0.5 381.64"/><path class="cls-1" d="M256.5,376.42a13.56,13.56,0,0,1-1.6,6.41L272.73,365a10.69,10.69,0,0,0,0-15.11l-16.51-16.5a13.59,13.59,0,0,1,.28,2.73Z"/><path class="cls-1" d="M245.55,322.71l-76.38-76.38a10.68,10.68,0,0,0-15.1,0l-17.89,17.89a10.68,10.68,0,0,0,0,15.1l43.12,43.12h63.52A13.66,13.66,0,0,1,245.55,322.71Z"/><polygon class="cls-1" points="182.3 325.44 179.3 322.44 175.06 322.44 178.06 325.44 182.3 325.44"/><path class="cls-1" d="M146,387.1h94.38a13.37,13.37,0,0,1-2.72-2.1l-59.57-59.56H82.94a13.57,13.57,0,0,1,4.24,2.88Z"/><path class="cls-1" d="M247.52,386a10.67,10.67,0,0,0,6-9.58v-40.3a10.68,10.68,0,0,0-10.68-10.68H182.3l57.44,57.44A10.65,10.65,0,0,0,247.52,386Z"/><path class="cls-1" d="M68.15,336.12A13.67,13.67,0,0,1,69,331.4L52.07,348.33a10.68,10.68,0,0,0,0,15.1L68.64,380a13.55,13.55,0,0,1-.49-3.57Z"/><path class="cls-1" d="M78.25,389.61,155.63,467a10.69,10.69,0,0,0,15.11,0l17.88-17.88a10.69,10.69,0,0,0,0-15.11l-43.9-43.9H81.83A13.63,13.63,0,0,1,78.25,389.61Z"/><path class="cls-1" d="M71.15,336.12v40.3A10.68,10.68,0,0,0,81.83,387.1h59.89L85.06,330.44a10.65,10.65,0,0,0-9.52-2.94A10.64,10.64,0,0,0,71.15,336.12Z"/><polygon class="cls-1" points="346.03 384 346.04 384.01 328.15 366.12 346.03 384"/><path class="cls-1" d="M365.38,328.89l25.44,25.43L509.44,235.7a10.68,10.68,0,0,0,0-15.1l-17.89-17.89a10.68,10.68,0,0,0-15.1,0L354.19,325a12.79,12.79,0,0,1,1.52-.09A13.56,13.56,0,0,1,365.38,328.89Z"/><polygon class="cls-1" points="346.03 328.89 328.15 346.77 346.04 328.88 346.03 328.89"/><path class="cls-1" d="M355.71,388a12.79,12.79,0,0,1-1.52-.09L476.45,510.18a10.68,10.68,0,0,0,15.1,0l17.89-17.89a10.68,10.68,0,0,0,0-15.1L390.82,358.57,365.38,384A13.56,13.56,0,0,1,355.71,388Z"/><path class="cls-1" d="M348.15,331l-17.88,17.88a10.69,10.69,0,0,0,0,15.11l17.88,17.88a10.69,10.69,0,0,0,15.11,0l25.44-25.44L363.26,331A10.69,10.69,0,0,0,348.15,331Z"/><path class="cls-1" d="M610.55,321.71l-76.38-76.38a10.68,10.68,0,0,0-15.1,0l-17.89,17.89a10.68,10.68,0,0,0,0,15.1l43.12,43.12h63.52A13.66,13.66,0,0,1,610.55,321.71Z"/><path class="cls-1" d="M621.5,375.42a13.56,13.56,0,0,1-1.6,6.41L637.73,364a10.69,10.69,0,0,0,0-15.11l-16.51-16.5a13.59,13.59,0,0,1,.28,2.73Z"/><path class="cls-1" d="M543.05,324.44H447.94a13.57,13.57,0,0,1,4.24,2.88L511,386.1h94.38a13.37,13.37,0,0,1-2.72-2.1Z"/><path class="cls-1" d="M612.52,385a10.67,10.67,0,0,0,6-9.58v-40.3a10.68,10.68,0,0,0-10.68-10.68H547.3l57.44,57.44A10.65,10.65,0,0,0,612.52,385Z"/><path class="cls-1" d="M433.15,335.12a13.67,13.67,0,0,1,.85-4.72l-16.93,16.93a10.68,10.68,0,0,0,0,15.1L433.64,379a13.55,13.55,0,0,1-.49-3.57Z"/><path class="cls-1" d="M443.25,388.61,520.63,466a10.69,10.69,0,0,0,15.11,0l17.88-17.88a10.69,10.69,0,0,0,0-15.11l-43.9-43.9H446.83A13.63,13.63,0,0,1,443.25,388.61Z"/><path class="cls-1" d="M440.54,326.5a10.64,10.64,0,0,0-4.39,8.62v40.3a10.68,10.68,0,0,0,10.68,10.68h59.89l-56.66-56.66A10.65,10.65,0,0,0,440.54,326.5Z"/><polygon class="cls-1" points="714.03 384 714.04 384.01 696.15 366.12 714.03 384"/><path class="cls-1" d="M733.38,328.89l25.44,25.43L877.44,235.7a10.68,10.68,0,0,0,0-15.1l-17.89-17.89a10.68,10.68,0,0,0-15.1,0L722.19,325a12.79,12.79,0,0,1,1.52-.09A13.56,13.56,0,0,1,733.38,328.89Z"/><polygon class="cls-1" points="714.03 328.89 696.15 346.77 714.04 328.88 714.03 328.89"/><path class="cls-1" d="M723.71,388a12.79,12.79,0,0,1-1.52-.09L844.45,510.18a10.68,10.68,0,0,0,15.1,0l17.89-17.89a10.68,10.68,0,0,0,0-15.1L758.82,358.57,733.38,384A13.56,13.56,0,0,1,723.71,388Z"/><path class="cls-1" d="M716.15,331l-17.88,17.88a10.69,10.69,0,0,0,0,15.11l17.88,17.88a10.69,10.69,0,0,0,15.11,0l25.44-25.44L731.26,331A10.69,10.69,0,0,0,716.15,331Z"/><path class="cls-1" d="M989.5,375.42a13.56,13.56,0,0,1-1.6,6.41L1005.73,364a10.69,10.69,0,0,0,0-15.11l-16.51-16.5a13.59,13.59,0,0,1,.28,2.73Z"/><path class="cls-1" d="M978.55,321.71l-76.38-76.38a10.68,10.68,0,0,0-15.1,0l-17.89,17.89a10.68,10.68,0,0,0,0,15.1l43.12,43.12h63.52A13.66,13.66,0,0,1,978.55,321.71Z"/><path class="cls-1" d="M911.06,324.44H815.94a13.57,13.57,0,0,1,4.24,2.88L879,386.1h94.38a13.65,13.65,0,0,1-2.72-2.1Z"/><path class="cls-1" d="M980.52,385a10.67,10.67,0,0,0,6-9.58v-40.3a10.68,10.68,0,0,0-10.68-10.68H915.3l57.44,57.44A10.65,10.65,0,0,0,980.52,385Z"/><path class="cls-1" d="M811.25,388.61,888.63,466a10.69,10.69,0,0,0,15.11,0l17.88-17.88a10.69,10.69,0,0,0,0-15.11l-43.9-43.9H814.83A13.63,13.63,0,0,1,811.25,388.61Z"/><path class="cls-1" d="M801.15,335.12a13.67,13.67,0,0,1,.85-4.72l-16.93,16.93a10.68,10.68,0,0,0,0,15.1L801.64,379a13.55,13.55,0,0,1-.49-3.57Z"/><path class="cls-1" d="M808.54,326.5a10.64,10.64,0,0,0-4.39,8.62v40.3a10.68,10.68,0,0,0,10.68,10.68h59.89l-56.66-56.66A10.65,10.65,0,0,0,808.54,326.5Z"/><polygon class="cls-1" points="1079.03 383 1079.04 383.01 1061.15 365.12 1079.03 383"/><path class="cls-1" d="M1098.38,327.89l25.44,25.43L1242.44,234.7a10.68,10.68,0,0,0,0-15.1l-17.89-17.89a10.68,10.68,0,0,0-15.1,0L1087.19,324a12.79,12.79,0,0,1,1.52-.09A13.56,13.56,0,0,1,1098.38,327.89Z"/><polygon class="cls-1" points="1079.03 327.89 1061.15 345.77 1079.03 327.89 1079.03 327.89"/><path class="cls-1" d="M1088.71,387a12.79,12.79,0,0,1-1.52-.09l122.26,122.26a10.68,10.68,0,0,0,15.1,0l17.89-17.89a10.68,10.68,0,0,0,0-15.1L1123.82,357.57,1098.38,383A13.56,13.56,0,0,1,1088.71,387Z"/><path class="cls-1" d="M1081.15,330l-17.88,17.88a10.69,10.69,0,0,0,0,15.11l17.88,17.88a10.69,10.69,0,0,0,15.11,0l25.44-25.44L1096.26,330A10.69,10.69,0,0,0,1081.15,330Z"/><path class="cls-1" d="M1343.55,320.71l-76.38-76.38a10.68,10.68,0,0,0-15.1,0l-17.89,17.89a10.68,10.68,0,0,0,0,15.1l43.12,43.12h63.52A13.66,13.66,0,0,1,1343.55,320.71Z"/><path class="cls-1" d="M1354.5,374.42a13.56,13.56,0,0,1-1.6,6.41L1370.73,363a10.69,10.69,0,0,0,0-15.11l-16.51-16.5a13.59,13.59,0,0,1,.28,2.73Z"/><path class="cls-1" d="M1276.05,323.44h-95.11a13.57,13.57,0,0,1,4.24,2.88L1244,385.1h94.38a13.65,13.65,0,0,1-2.72-2.1Z"/><path class="cls-1" d="M1345.52,384a10.67,10.67,0,0,0,6-9.58v-40.3a10.68,10.68,0,0,0-10.68-10.68H1280.3l57.44,57.44A10.65,10.65,0,0,0,1345.52,384Z"/><path class="cls-1" d="M1166.15,334.12a13.67,13.67,0,0,1,.85-4.72l-16.93,16.93a10.68,10.68,0,0,0,0,15.1L1166.64,378a13.69,13.69,0,0,1-.49-3.58Z"/><path class="cls-1" d="M1176.25,387.61,1253.63,465a10.69,10.69,0,0,0,15.11,0l17.88-17.88a10.69,10.69,0,0,0,0-15.11l-43.9-43.9h-62.89A13.63,13.63,0,0,1,1176.25,387.61Z"/><path class="cls-1" d="M1173.54,325.5a10.64,10.64,0,0,0-4.39,8.62v40.3a10.68,10.68,0,0,0,10.68,10.68h59.89l-56.66-56.66A10.65,10.65,0,0,0,1173.54,325.5Z"/><polygon class="cls-1" points="1444.03 382 1444.04 382.01 1426.15 364.12 1444.03 382"/><path class="cls-1" d="M1463.38,326.89l25.44,25.43L1607.44,233.7a10.68,10.68,0,0,0,0-15.1l-17.89-17.89a10.68,10.68,0,0,0-15.1,0L1452.19,323a12.79,12.79,0,0,1,1.52-.09A13.56,13.56,0,0,1,1463.38,326.89Z"/><polygon class="cls-1" points="1444.03 326.89 1426.15 344.77 1444.03 326.89 1444.03 326.89"/><path class="cls-1" d="M1453.71,386a12.79,12.79,0,0,1-1.52-.09l122.26,122.26a10.68,10.68,0,0,0,15.1,0l17.89-17.89a10.68,10.68,0,0,0,0-15.1L1488.82,356.57,1463.38,382A13.56,13.56,0,0,1,1453.71,386Z"/><path class="cls-1" d="M1446.15,329l-17.88,17.88a10.69,10.69,0,0,0,0,15.11l17.88,17.88a10.69,10.69,0,0,0,15.11,0l25.44-25.44L1461.26,329A10.69,10.69,0,0,0,1446.15,329Z"/><path class="cls-1" d="M1708.55,319.71l-76.38-76.38a10.68,10.68,0,0,0-15.1,0l-17.89,17.89a10.68,10.68,0,0,0,0,15.1l43.12,43.12h63.52A13.66,13.66,0,0,1,1708.55,319.71Z"/><path class="cls-1" d="M1719.5,373.42a13.56,13.56,0,0,1-1.6,6.41L1735.73,362a10.69,10.69,0,0,0,0-15.11l-16.51-16.5a13.59,13.59,0,0,1,.28,2.73Z"/><path class="cls-1" d="M1641.05,322.44h-95.11a13.57,13.57,0,0,1,4.24,2.88L1609,384.1h94.38a13.65,13.65,0,0,1-2.72-2.1Z"/><path class="cls-1" d="M1710.52,383a10.67,10.67,0,0,0,6-9.58v-40.3a10.68,10.68,0,0,0-10.68-10.68H1645.3l57.44,57.44A10.65,10.65,0,0,0,1710.52,383Z"/><path class="cls-1" d="M1541.25,386.61,1618.63,464a10.69,10.69,0,0,0,15.11,0l17.88-17.88a10.69,10.69,0,0,0,0-15.11l-43.9-43.9h-62.89A13.63,13.63,0,0,1,1541.25,386.61Z"/><path class="cls-1" d="M1531.15,333.12a13.67,13.67,0,0,1,.85-4.72l-16.93,16.93a10.68,10.68,0,0,0,0,15.1L1531.64,377a13.69,13.69,0,0,1-.49-3.58Z"/><path class="cls-1" d="M1538.54,324.5a10.64,10.64,0,0,0-4.39,8.62v40.3a10.68,10.68,0,0,0,10.68,10.68h59.89l-56.66-56.66A10.65,10.65,0,0,0,1538.54,324.5Z"/><polygon class="cls-1" points="1809.03 381 1809.04 381.01 1791.15 363.12 1809.03 381"/><path class="cls-1" d="M1828.38,325.89l25.44,25.43,65.68-65.68v-66L1817.19,322a12.79,12.79,0,0,1,1.52-.09A13.56,13.56,0,0,1,1828.38,325.89Z"/><polygon class="cls-1" points="1809.03 325.89 1791.15 343.77 1809.03 325.89 1809.03 325.89"/><path class="cls-1" d="M1818.71,385a12.79,12.79,0,0,1-1.52-.09L1919.5,487.23v-66l-65.68-65.68L1828.38,381A13.56,13.56,0,0,1,1818.71,385Z"/><path class="cls-1" d="M1811.15,328l-17.88,17.88a10.69,10.69,0,0,0,0,15.11l17.88,17.88a10.69,10.69,0,0,0,15.11,0l25.44-25.44L1826.26,328A10.69,10.69,0,0,0,1811.15,328Z"/><path class="cls-1" d="M1919.5,328.64v-7.2h-8.56a13.57,13.57,0,0,1,4.24,2.88Z"/><path class="cls-1" d="M1896.15,332.12a13.67,13.67,0,0,1,.85-4.72l-16.93,16.93a10.68,10.68,0,0,0,0,15.1L1896.64,376a13.69,13.69,0,0,1-.49-3.58Z"/><path class="cls-1" d="M1909.83,386.1a13.63,13.63,0,0,1-3.58-.49l13.25,13.25V386.1Z"/><path class="cls-1" d="M1903.54,323.5a10.64,10.64,0,0,0-4.39,8.62v40.3a10.68,10.68,0,0,0,10.68,10.68h9.67V332.88l-6.44-6.44A10.65,10.65,0,0,0,1903.54,323.5Z"/><path class="cls-1" d="M73,555.25a13.63,13.63,0,0,1-1.6,6.42l17.83-17.84a10.69,10.69,0,0,0,0-15.11l-16.51-16.5A13.67,13.67,0,0,1,73,515Z"/><path class="cls-1" d="M59.32,501.27a13.67,13.67,0,0,1,2.73.28L-.5,439v62.28Z"/><path class="cls-1" d="M-.5,509.22v56.71H56.84a13.68,13.68,0,0,1-2.72-2.09Z"/><path class="cls-1" d="M70,555.25V515a10.68,10.68,0,0,0-10.68-10.68H-.5v.7l56.74,56.74A10.61,10.61,0,0,0,64,564.83,10.67,10.67,0,0,0,70,555.25Z"/><path class="cls-1" d="M5.12,627.94a10.69,10.69,0,0,0,0-15.11L-.5,607.21v26.35Z"/><path class="cls-1" d="M181.88,507.72l25.44,25.44L325.94,414.54a10.69,10.69,0,0,0,0-15.11l-17.89-17.88a10.68,10.68,0,0,0-15.1,0L170.69,503.8c.5-.05,1-.09,1.52-.09A13.6,13.6,0,0,1,181.88,507.72Z"/><path class="cls-1" d="M172.21,566.84a12.79,12.79,0,0,1-1.52-.09L293,689a10.68,10.68,0,0,0,15.1,0l17.89-17.89a10.68,10.68,0,0,0,0-15.1L207.32,537.4l-25.44,25.44A13.59,13.59,0,0,1,172.21,566.84Z"/><path class="cls-1" d="M179.76,560.71l25.44-25.43-25.44-25.44a10.69,10.69,0,0,0-15.11,0l-17.88,17.88a10.69,10.69,0,0,0,0,15.11l17.88,17.88A10.67,10.67,0,0,0,179.76,560.71Z"/><path class="cls-1" d="M438,554.25a13.63,13.63,0,0,1-1.6,6.42l17.83-17.84a10.69,10.69,0,0,0,0-15.11l-16.51-16.5A13.67,13.67,0,0,1,438,514Z"/><path class="cls-1" d="M427.05,500.55l-76.38-76.38a10.66,10.66,0,0,0-15.1,0l-17.89,17.88a10.69,10.69,0,0,0,0,15.11l43.12,43.11h63.52A13.67,13.67,0,0,1,427.05,500.55Z"/><path class="cls-1" d="M359.55,503.27H264.44a13.74,13.74,0,0,1,4.24,2.88l58.78,58.78h94.38a13.68,13.68,0,0,1-2.72-2.09Z"/><path class="cls-1" d="M429,563.83a10.67,10.67,0,0,0,6-9.58V514a10.68,10.68,0,0,0-10.68-10.68H363.8l57.44,57.44A10.61,10.61,0,0,0,429,563.83Z"/><path class="cls-1" d="M249.65,514a13.67,13.67,0,0,1,.85-4.72l-16.93,16.93a10.69,10.69,0,0,0,0,15.11l16.57,16.56a13.63,13.63,0,0,1-.49-3.58Z"/><path class="cls-1" d="M259.75,567.44l77.38,77.38a10.67,10.67,0,0,0,15.11,0l17.88-17.88a10.69,10.69,0,0,0,0-15.11l-43.9-43.9H263.33A13.63,13.63,0,0,1,259.75,567.44Z"/><path class="cls-1" d="M257,505.33a10.67,10.67,0,0,0-4.39,8.62v40.3a10.68,10.68,0,0,0,10.68,10.68h59.89l-56.66-56.65A10.68,10.68,0,0,0,257,505.33Z"/><path class="cls-1" d="M549.88,507.72l25.44,25.44L693.94,414.54a10.69,10.69,0,0,0,0-15.11l-17.89-17.88a10.68,10.68,0,0,0-15.1,0L538.69,503.8c.5-.05,1-.09,1.52-.09A13.6,13.6,0,0,1,549.88,507.72Z"/><path class="cls-1" d="M540.21,566.84a12.79,12.79,0,0,1-1.52-.09L661,689a10.68,10.68,0,0,0,15.1,0l17.89-17.89a10.68,10.68,0,0,0,0-15.1L575.32,537.4l-25.44,25.44A13.59,13.59,0,0,1,540.21,566.84Z"/><path class="cls-1" d="M547.76,560.71l25.44-25.43-25.44-25.44a10.69,10.69,0,0,0-15.11,0l-17.88,17.88a10.69,10.69,0,0,0,0,15.11l17.88,17.88A10.67,10.67,0,0,0,547.76,560.71Z"/><path class="cls-1" d="M806,554.25a13.63,13.63,0,0,1-1.6,6.42l17.83-17.84a10.69,10.69,0,0,0,0-15.11l-16.51-16.5A13.67,13.67,0,0,1,806,514Z"/><path class="cls-1" d="M795.05,500.55l-76.38-76.38a10.66,10.66,0,0,0-15.1,0l-17.89,17.88a10.69,10.69,0,0,0,0,15.11l43.12,43.11h63.52A13.67,13.67,0,0,1,795.05,500.55Z"/><path class="cls-1" d="M727.55,503.27H632.44a13.74,13.74,0,0,1,4.24,2.88l58.78,58.78h94.38a13.68,13.68,0,0,1-2.72-2.09Z"/><path class="cls-1" d="M797,563.83a10.67,10.67,0,0,0,6-9.58V514a10.68,10.68,0,0,0-10.68-10.68H731.8l57.44,57.44A10.61,10.61,0,0,0,797,563.83Z"/><path class="cls-1" d="M617.65,514a13.67,13.67,0,0,1,.85-4.72l-16.93,16.93a10.69,10.69,0,0,0,0,15.11l16.57,16.56a13.63,13.63,0,0,1-.49-3.58Z"/><path class="cls-1" d="M627.75,567.44l77.38,77.38a10.67,10.67,0,0,0,15.11,0l17.88-17.88a10.69,10.69,0,0,0,0-15.11l-43.9-43.9H631.33A13.63,13.63,0,0,1,627.75,567.44Z"/><path class="cls-1" d="M625,505.33a10.67,10.67,0,0,0-4.39,8.62v40.3a10.68,10.68,0,0,0,10.68,10.68h59.89l-56.66-56.65A10.68,10.68,0,0,0,625,505.33Z"/><path class="cls-1" d="M914.88,506.72l25.44,25.44,118.62-118.62a10.69,10.69,0,0,0,0-15.11l-17.89-17.88a10.68,10.68,0,0,0-15.1,0L903.69,502.8c.5-.05,1-.09,1.52-.09A13.6,13.6,0,0,1,914.88,506.72Z"/><path class="cls-1" d="M905.21,565.84a12.79,12.79,0,0,1-1.52-.09L1026,688a10.68,10.68,0,0,0,15.1,0l17.89-17.89a10.68,10.68,0,0,0,0-15.1L940.32,536.4l-25.44,25.44A13.59,13.59,0,0,1,905.21,565.84Z"/><path class="cls-1" d="M912.76,559.71l25.44-25.43-25.44-25.44a10.69,10.69,0,0,0-15.11,0l-17.88,17.88a10.69,10.69,0,0,0,0,15.11l17.88,17.88A10.67,10.67,0,0,0,912.76,559.71Z"/><path class="cls-1" d="M1160.05,499.55l-76.38-76.38a10.66,10.66,0,0,0-15.1,0l-17.89,17.88a10.69,10.69,0,0,0,0,15.11l43.12,43.11h63.52A13.67,13.67,0,0,1,1160.05,499.55Z"/><path class="cls-1" d="M1171,553.25a13.63,13.63,0,0,1-1.6,6.42l17.83-17.84a10.69,10.69,0,0,0,0-15.11l-16.51-16.5A13.67,13.67,0,0,1,1171,513Z"/><path class="cls-1" d="M1092.55,502.27H997.44a13.74,13.74,0,0,1,4.24,2.88l58.78,58.78h94.38a14,14,0,0,1-2.72-2.09Z"/><path class="cls-1" d="M1162,562.83a10.67,10.67,0,0,0,6-9.58V513a10.68,10.68,0,0,0-10.68-10.68H1096.8l57.44,57.44A10.61,10.61,0,0,0,1162,562.83Z"/><path class="cls-1" d="M992.75,566.44l77.38,77.38a10.67,10.67,0,0,0,15.11,0l17.88-17.88a10.69,10.69,0,0,0,0-15.11l-43.9-43.9H996.33A13.63,13.63,0,0,1,992.75,566.44Z"/><path class="cls-1" d="M982.65,513a13.67,13.67,0,0,1,.85-4.72l-16.93,16.93a10.69,10.69,0,0,0,0,15.11l16.57,16.56a13.63,13.63,0,0,1-.49-3.58Z"/><path class="cls-1" d="M990,504.33a10.67,10.67,0,0,0-4.39,8.62v40.3a10.68,10.68,0,0,0,10.68,10.68h59.89l-56.66-56.65A10.68,10.68,0,0,0,990,504.33Z"/><path class="cls-1" d="M1238.64,533.28a13.55,13.55,0,0,0,2.29,7.58,13.55,13.55,0,0,1-2.29-7.58Z"/><path class="cls-1" d="M1279.88,505.72l25.44,25.44,118.62-118.62a10.69,10.69,0,0,0,0-15.11l-17.89-17.88a10.68,10.68,0,0,0-15.1,0L1268.69,501.8c.5-.05,1-.09,1.52-.09A13.6,13.6,0,0,1,1279.88,505.72Z"/><path class="cls-1" d="M1238.64,533.28h0a13.61,13.61,0,0,1,2.29-7.59A13.61,13.61,0,0,0,1238.64,533.28Z"/><path class="cls-1" d="M1270.21,564.84a12.79,12.79,0,0,1-1.52-.09L1391,687a10.68,10.68,0,0,0,15.1,0l17.89-17.89a10.68,10.68,0,0,0,0-15.1L1305.32,535.4l-25.44,25.44A13.59,13.59,0,0,1,1270.21,564.84Z"/><path class="cls-1" d="M1277.76,558.71l25.44-25.43-25.44-25.44a10.69,10.69,0,0,0-15.11,0l-17.88,17.88a10.69,10.69,0,0,0,0,15.11l17.88,17.88A10.67,10.67,0,0,0,1277.76,558.71Z"/><path class="cls-1" d="M1536,552.25a13.63,13.63,0,0,1-1.6,6.42l17.83-17.84a10.69,10.69,0,0,0,0-15.11l-16.51-16.5A13.67,13.67,0,0,1,1536,512Z"/><path class="cls-1" d="M1525.05,498.55l-76.38-76.38a10.66,10.66,0,0,0-15.1,0l-17.89,17.88a10.69,10.69,0,0,0,0,15.11l43.12,43.11h63.52A13.67,13.67,0,0,1,1525.05,498.55Z"/><path class="cls-1" d="M1457.55,501.27h-95.11a13.74,13.74,0,0,1,4.24,2.88l58.78,58.78h94.38a14,14,0,0,1-2.72-2.09Z"/><path class="cls-1" d="M1527,561.83a10.67,10.67,0,0,0,6-9.58V512a10.68,10.68,0,0,0-10.68-10.68H1461.8l57.44,57.44A10.61,10.61,0,0,0,1527,561.83Z"/><path class="cls-1" d="M1347.65,512a13.67,13.67,0,0,1,.85-4.72l-16.93,16.93a10.69,10.69,0,0,0,0,15.11l16.57,16.56a13.63,13.63,0,0,1-.49-3.58Z"/><path class="cls-1" d="M1357.75,565.44l77.38,77.38a10.67,10.67,0,0,0,15.11,0l17.88-17.88a10.69,10.69,0,0,0,0-15.11l-43.9-43.9h-62.89A13.63,13.63,0,0,1,1357.75,565.44Z"/><path class="cls-1" d="M1355,503.33a10.67,10.67,0,0,0-4.39,8.62v40.3a10.68,10.68,0,0,0,10.68,10.68h59.89l-56.66-56.65A10.68,10.68,0,0,0,1355,503.33Z"/><path class="cls-1" d="M1603.64,532.28a13.55,13.55,0,0,0,2.29,7.58,13.55,13.55,0,0,1-2.29-7.58Z"/><path class="cls-1" d="M1644.88,504.72l25.44,25.44,118.62-118.62a10.69,10.69,0,0,0,0-15.11l-17.89-17.88a10.68,10.68,0,0,0-15.1,0L1633.69,500.8c.5-.05,1-.09,1.52-.09A13.6,13.6,0,0,1,1644.88,504.72Z"/><path class="cls-1" d="M1603.64,532.28h0a13.61,13.61,0,0,1,2.29-7.59A13.61,13.61,0,0,0,1603.64,532.28Z"/><path class="cls-1" d="M1635.21,563.84a12.79,12.79,0,0,1-1.52-.09L1756,686a10.68,10.68,0,0,0,15.1,0l17.89-17.89a10.68,10.68,0,0,0,0-15.1L1670.32,534.4l-25.44,25.44A13.59,13.59,0,0,1,1635.21,563.84Z"/><path class="cls-1" d="M1627.65,506.84l-17.88,17.88a10.69,10.69,0,0,0,0,15.11l17.88,17.88a10.67,10.67,0,0,0,15.11,0l25.44-25.43-25.44-25.44A10.69,10.69,0,0,0,1627.65,506.84Z"/><path class="cls-2" d="M1919.5,536.46v5.33a13.65,13.65,0,0,0,0-19v5.32A10.67,10.67,0,0,1,1919.5,536.46Z"/><path class="cls-2" d="M1919.5,528.09v8.37A10.67,10.67,0,0,0,1919.5,528.09Z"/><path class="cls-1" d="M1901,551.25a13.63,13.63,0,0,1-1.6,6.42l17.83-17.84a10.55,10.55,0,0,0,2.27-3.37v-8.37a10.66,10.66,0,0,0-2.27-3.37l-16.51-16.5A13.67,13.67,0,0,1,1901,511Z"/><path class="cls-1" d="M1890.05,497.55l-76.38-76.38a10.66,10.66,0,0,0-15.1,0l-17.89,17.88a10.69,10.69,0,0,0,0,15.11l43.12,43.11h63.52A13.67,13.67,0,0,1,1890.05,497.55Z"/><path class="cls-1" d="M1822.55,500.27h-95.11a13.74,13.74,0,0,1,4.24,2.88l58.78,58.78h94.38a14,14,0,0,1-2.72-2.09Z"/><path class="cls-1" d="M1898,551.25V511a10.68,10.68,0,0,0-10.68-10.68H1826.8l57.44,57.44a7.72,7.72,0,0,0,13.76-6.46Z"/><path class="cls-1" d="M1712.65,511a13.67,13.67,0,0,1,.85-4.72l-16.93,16.93a10.69,10.69,0,0,0,0,15.11l16.57,16.56a13.63,13.63,0,0,1-.49-3.58Z"/><path class="cls-1" d="M1722.75,564.44l77.38,77.38a10.67,10.67,0,0,0,15.11,0l17.88-17.88a10.69,10.69,0,0,0,0-15.11l-43.9-43.9h-62.89A13.63,13.63,0,0,1,1722.75,564.44Z"/><path class="cls-1" d="M1720,502.33a10.67,10.67,0,0,0-4.39,8.62v40.3a10.68,10.68,0,0,0,10.68,10.68h59.89l-56.66-56.65A10.68,10.68,0,0,0,1720,502.33Z"/><path class="cls-1" d="M2.38,22A13.45,13.45,0,0,1-.5,24.19v10l114,114a10.68,10.68,0,0,0,15.1,0l17.89-17.89a10.68,10.68,0,0,0,0-15.1L30.75-.5H24.88Z"/><path class="cls-1" d="M20.64-.5H-.5V20.57a9.86,9.86,0,0,0,.76-.69Z"/><path class="cls-1" d="M258.5,13.42a13.56,13.56,0,0,1-1.6,6.41L274.73,2a10.51,10.51,0,0,0,1.85-2.5H258.5Z"/><path class="cls-1" d="M217.12-.5H123.36L148,24.1h94.38a13.37,13.37,0,0,1-2.72-2.1Z"/><path class="cls-1" d="M255.5,13.42V-.5H221.36l20.38,20.38A10.65,10.65,0,0,0,249.52,23,10.67,10.67,0,0,0,255.5,13.42Z"/><polygon class="cls-1" points="143.72 24.1 146.72 27.1 150.96 27.1 147.96 24.1 143.72 24.1"/><path class="cls-1" d="M80.25,26.61,157.63,104a10.69,10.69,0,0,0,15.11,0l17.88-17.88a10.69,10.69,0,0,0,0-15.11l-43.9-43.9H83.83A13.63,13.63,0,0,1,80.25,26.61Z"/><path class="cls-1" d="M70.15-.5H53.25c.26.32.53.63.82.93L70.64,17a13.55,13.55,0,0,1-.49-3.57Z"/><path class="cls-1" d="M73.15-.5V13.42A10.68,10.68,0,0,0,83.83,24.1h59.89L119.12-.5Z"/><polygon class="cls-1" points="348.03 21 348.04 21.01 330.15 3.12 348.03 21"/><path class="cls-1" d="M493.55,147.18l17.89-17.89a10.68,10.68,0,0,0,0-15.1L396.75-.5h-7.87L367.38,21a13.56,13.56,0,0,1-9.67,4,12.79,12.79,0,0,1-1.52-.09L478.45,147.18A10.68,10.68,0,0,0,493.55,147.18Z"/><path class="cls-1" d="M365.26,18.88,384.64-.5H331A10.29,10.29,0,0,0,332.27,1l17.88,17.88A10.69,10.69,0,0,0,365.26,18.88Z"/><path class="cls-1" d="M623.5,12.42a13.56,13.56,0,0,1-1.6,6.41L639.73,1A10.29,10.29,0,0,0,641-.5H623.5Z"/><path class="cls-1" d="M583.12-.5H489.36L513,23.1h94.38a13.37,13.37,0,0,1-2.72-2.1Z"/><path class="cls-1" d="M620.5,12.42V-.5H587.36l19.38,19.38A10.65,10.65,0,0,0,614.52,22,10.67,10.67,0,0,0,620.5,12.42Z"/><path class="cls-1" d="M435.15-.5h-16L435.64,16a13.55,13.55,0,0,1-.49-3.57Z"/><path class="cls-1" d="M445.25,25.61,522.63,103a10.69,10.69,0,0,0,15.11,0l17.88-17.88a10.69,10.69,0,0,0,0-15.11l-43.9-43.9H448.83A13.63,13.63,0,0,1,445.25,25.61Z"/><path class="cls-1" d="M438.15-.5V12.42A10.68,10.68,0,0,0,448.83,23.1h59.89L485.12-.5Z"/><polygon class="cls-1" points="716.03 21 716.04 21.01 698.15 3.12 716.03 21"/><path class="cls-1" d="M861.55,147.18l17.89-17.89a10.68,10.68,0,0,0,0-15.1L764.75-.5h-7.87L735.38,21a13.56,13.56,0,0,1-9.67,4,12.79,12.79,0,0,1-1.52-.09L846.45,147.18A10.68,10.68,0,0,0,861.55,147.18Z"/><path class="cls-1" d="M733.26,18.88,752.64-.5H699A10.29,10.29,0,0,0,700.27,1l17.88,17.88A10.69,10.69,0,0,0,733.26,18.88Z"/><path class="cls-1" d="M991.5,12.42a13.56,13.56,0,0,1-1.6,6.41L1007.73,1A10.29,10.29,0,0,0,1009-.5H991.5Z"/><path class="cls-1" d="M991.5-.5h-3V12.42a10.67,10.67,0,0,1-6,9.58,10.66,10.66,0,0,0,7.33-3.12l0-.05a13.56,13.56,0,0,0,1.6-6.41Z"/><path class="cls-1" d="M951.12-.5H857.36L881,23.1h94.38a13.65,13.65,0,0,1-2.72-2.1Z"/><path class="cls-1" d="M988.5,12.42V-.5H955.36l19.38,19.38A10.65,10.65,0,0,0,982.52,22,10.67,10.67,0,0,0,988.5,12.42Z"/><path class="cls-1" d="M803.15-.5h-16L803.64,16a13.55,13.55,0,0,1-.49-3.57Z"/><path class="cls-1" d="M813.25,25.61,890.63,103a10.69,10.69,0,0,0,15.11,0l17.88-17.88a10.69,10.69,0,0,0,0-15.11l-43.9-43.9H816.83A13.63,13.63,0,0,1,813.25,25.61Z"/><path class="cls-1" d="M806.15-.5V12.42A10.68,10.68,0,0,0,816.83,23.1h59.89L853.12-.5Z"/><polygon class="cls-1" points="1081.03 20 1081.04 20.01 1063.15 2.12 1081.03 20"/><path class="cls-1" d="M1226.55,146.18l17.89-17.89a10.68,10.68,0,0,0,0-15.1L1130.75-.5h-9.87L1100.38,20a13.56,13.56,0,0,1-9.67,4,12.79,12.79,0,0,1-1.52-.09l122.26,122.26A10.68,10.68,0,0,0,1226.55,146.18Z"/><path class="cls-1" d="M1098.26,17.88,1116.64-.5h-51.82c.15.17.29.34.45.5l17.88,17.88A10.69,10.69,0,0,0,1098.26,17.88Z"/><path class="cls-1" d="M1372.73,0,1354.9,17.83a13.79,13.79,0,0,1-6.64,6.13,13.57,13.57,0,0,0,8.71-4l17.88-17.88a13.79,13.79,0,0,0,2-2.62h-3.71C1373-.33,1372.89-.16,1372.73,0Z"/><path class="cls-1" d="M1356.5,11.42a13.56,13.56,0,0,1-1.6,6.41L1372.73,0c.16-.16.3-.33.45-.5H1356.5Z"/><path class="cls-1" d="M1317.12-.5h-93.76L1246,22.1h94.38a13.65,13.65,0,0,1-2.72-2.1Z"/><path class="cls-1" d="M1353.5,11.42V-.5h-32.14l18.38,18.38a10.65,10.65,0,0,0,7.78,3.12A10.67,10.67,0,0,0,1353.5,11.42Z"/><path class="cls-1" d="M1178.25,24.61,1255.63,102a10.69,10.69,0,0,0,15.11,0l17.88-17.88a10.69,10.69,0,0,0,0-15.11l-43.9-43.9h-62.89A13.63,13.63,0,0,1,1178.25,24.61Z"/><path class="cls-1" d="M1168.15-.5h-15l15.5,15.5a13.69,13.69,0,0,1-.49-3.58Z"/><path class="cls-1" d="M1171.15-.5V11.42a10.68,10.68,0,0,0,10.68,10.68h59.89L1219.12-.5Z"/><polygon class="cls-1" points="1446.03 19 1446.04 19.01 1428.15 1.12 1446.03 19"/><path class="cls-1" d="M1591.55,145.18l17.89-17.89a10.68,10.68,0,0,0,0-15.1L1496.75-.5h-11.87L1465.38,19a13.56,13.56,0,0,1-9.67,4,12.79,12.79,0,0,1-1.52-.09l122.26,122.26A10.68,10.68,0,0,0,1591.55,145.18Z"/><path class="cls-1" d="M1463.26,16.88,1480.64-.5h-49.87l17.38,17.38A10.69,10.69,0,0,0,1463.26,16.88Z"/><path class="cls-1" d="M1721.5,10.42a13.56,13.56,0,0,1-1.6,6.41L1737.23-.5H1721.5Z"/><path class="cls-1" d="M1721.5-.5h-3V10.42a10.67,10.67,0,0,1-6,9.58,10.66,10.66,0,0,0,7.33-3.12l.05-.05a13.56,13.56,0,0,0,1.6-6.41Z"/><path class="cls-1" d="M1683.12-.5h-93.76L1611,21.1h94.38a13.65,13.65,0,0,1-2.72-2.1Z"/><path class="cls-1" d="M1718.5,10.42V-.5h-31.14l17.38,17.38a10.65,10.65,0,0,0,7.78,3.12A10.67,10.67,0,0,0,1718.5,10.42Z"/><path class="cls-1" d="M1533.15-.5h-14l14.5,14.5a13.69,13.69,0,0,1-.49-3.58Z"/><path class="cls-1" d="M1543.25,23.61,1620.63,101a10.69,10.69,0,0,0,15.11,0l17.88-17.88a10.69,10.69,0,0,0,0-15.11l-43.9-43.9h-62.89A13.63,13.63,0,0,1,1543.25,23.61Z"/><path class="cls-1" d="M1536.15-.5V10.42a10.68,10.68,0,0,0,10.68,10.68h59.89L1585.12-.5Z"/><polygon class="cls-1" points="1811.03 18 1811.04 18.01 1793.15 0.12 1811.03 18"/><path class="cls-1" d="M1919.5,56.25,1862.75-.5h-13.87L1830.38,18a13.56,13.56,0,0,1-9.67,4,12.79,12.79,0,0,1-1.52-.09L1919.5,122.23Z"/><path class="cls-1" d="M1828.26,15.88,1844.64-.5h-47.87l16.38,16.38A10.69,10.69,0,0,0,1828.26,15.88Z"/><path class="cls-1" d="M1911.83,23.1a13.63,13.63,0,0,1-3.58-.49l11.25,11.25V23.1Z"/><path class="cls-1" d="M1898.15-.5h-13l13.5,13.5a13.69,13.69,0,0,1-.49-3.58Z"/><path class="cls-1" d="M1901.15-.5V9.42a10.68,10.68,0,0,0,10.68,10.68h7.67V-.5Z"/><path class="cls-1" d="M61.32,138.27a13.67,13.67,0,0,1,2.73.28L-.5,74v64.28Z"/><path class="cls-1" d="M75,192.25a13.63,13.63,0,0,1-1.6,6.42l17.83-17.84a10.69,10.69,0,0,0,0-15.11l-16.51-16.5A13.67,13.67,0,0,1,75,152Z"/><polygon class="cls-1" points="-0.5 139.97 -0.5 141.27 0.8 141.27 -0.5 139.97"/><path class="cls-1" d="M-.5,144.22v58.71H58.84a13.68,13.68,0,0,1-2.72-2.09Z"/><path class="cls-1" d="M72,192.25V152a10.68,10.68,0,0,0-10.68-10.68H.8l57.44,57.44A10.61,10.61,0,0,0,66,201.83,10.67,10.67,0,0,0,72,192.25Z"/><path class="cls-1" d="M7.12,264.94a10.69,10.69,0,0,0,0-15.11L-.5,242.21v30.35Z"/><polygon class="cls-1" points="164.54 199.84 146.65 181.95 164.53 199.84 164.54 199.84"/><path class="cls-1" d="M183.88,144.72l25.44,25.44L327.94,51.54a10.69,10.69,0,0,0,0-15.11L310.05,18.55a10.68,10.68,0,0,0-15.1,0L172.69,140.8c.5-.05,1-.09,1.52-.09A13.6,13.6,0,0,1,183.88,144.72Z"/><polygon class="cls-1" points="164.53 144.72 146.65 162.6 164.54 144.72 164.53 144.72"/><path class="cls-1" d="M310.05,326l17.89-17.89a10.68,10.68,0,0,0,0-15.1L209.32,174.4l-25.44,25.44a13.59,13.59,0,0,1-9.67,4,12.79,12.79,0,0,1-1.52-.09L295,326A10.68,10.68,0,0,0,310.05,326Z"/><path class="cls-1" d="M181.76,197.71l25.44-25.43-25.44-25.44a10.69,10.69,0,0,0-15.11,0l-17.88,17.88a10.69,10.69,0,0,0,0,15.11l17.88,17.88A10.67,10.67,0,0,0,181.76,197.71Z"/><path class="cls-1" d="M429.05,137.55,352.67,61.17a10.66,10.66,0,0,0-15.1,0L319.68,79.05a10.69,10.69,0,0,0,0,15.11l43.12,43.11h63.52A13.67,13.67,0,0,1,429.05,137.55Z"/><path class="cls-1" d="M440,191.25a13.63,13.63,0,0,1-1.6,6.42l17.83-17.84a10.69,10.69,0,0,0,0-15.11l-16.51-16.5A13.67,13.67,0,0,1,440,151Z"/><path class="cls-1" d="M361.55,140.27H266.44a13.74,13.74,0,0,1,4.24,2.88l58.78,58.78h94.38a13.68,13.68,0,0,1-2.72-2.09Z"/><path class="cls-1" d="M437,191.25V151a10.68,10.68,0,0,0-10.68-10.68H365.8l57.44,57.44a10.61,10.61,0,0,0,7.78,3.12A10.67,10.67,0,0,0,437,191.25Z"/><path class="cls-1" d="M261.75,204.44l77.38,77.38a10.67,10.67,0,0,0,15.11,0l17.88-17.88a10.69,10.69,0,0,0,0-15.11l-43.9-43.9H265.33A13.63,13.63,0,0,1,261.75,204.44Z"/><path class="cls-1" d="M251.65,151a13.67,13.67,0,0,1,.85-4.72l-16.93,16.93a10.69,10.69,0,0,0,0,15.11l16.57,16.56a13.63,13.63,0,0,1-.49-3.58Z"/><path class="cls-1" d="M259,142.33a10.67,10.67,0,0,0-4.39,8.62v40.3a10.68,10.68,0,0,0,10.68,10.68h59.89l-56.66-56.65A10.68,10.68,0,0,0,259,142.33Z"/><polygon class="cls-1" points="532.53 199.84 532.54 199.84 514.65 181.95 532.53 199.84"/><path class="cls-1" d="M551.88,144.72l25.44,25.44L695.94,51.54a10.69,10.69,0,0,0,0-15.11L678.05,18.55a10.68,10.68,0,0,0-15.1,0L540.69,140.8c.5-.05,1-.09,1.52-.09A13.6,13.6,0,0,1,551.88,144.72Z"/><polygon class="cls-1" points="532.53 144.72 514.65 162.6 532.54 144.72 532.53 144.72"/><path class="cls-1" d="M678.05,326l17.89-17.89a10.68,10.68,0,0,0,0-15.1L577.32,174.4l-25.44,25.44a13.59,13.59,0,0,1-9.67,4,12.79,12.79,0,0,1-1.52-.09L663,326A10.68,10.68,0,0,0,678.05,326Z"/><path class="cls-1" d="M549.76,197.71l25.44-25.43-25.44-25.44a10.69,10.69,0,0,0-15.11,0l-17.88,17.88a10.69,10.69,0,0,0,0,15.11l17.88,17.88A10.67,10.67,0,0,0,549.76,197.71Z"/><path class="cls-1" d="M797.05,137.55,720.67,61.17a10.66,10.66,0,0,0-15.1,0L687.68,79.05a10.69,10.69,0,0,0,0,15.11l43.12,43.11h63.52A13.67,13.67,0,0,1,797.05,137.55Z"/><path class="cls-1" d="M808,191.25a13.63,13.63,0,0,1-1.6,6.42l17.83-17.84a10.69,10.69,0,0,0,0-15.11l-16.51-16.5A13.67,13.67,0,0,1,808,151Z"/><path class="cls-1" d="M729.55,140.27H634.44a13.74,13.74,0,0,1,4.24,2.88l58.78,58.78h94.38a13.68,13.68,0,0,1-2.72-2.09Z"/><path class="cls-1" d="M805,191.25V151a10.68,10.68,0,0,0-10.68-10.68H733.8l57.44,57.44A7.72,7.72,0,0,0,805,191.25Z"/><path class="cls-1" d="M619.65,151a13.67,13.67,0,0,1,.85-4.72l-16.93,16.93a10.69,10.69,0,0,0,0,15.11l16.57,16.56a13.63,13.63,0,0,1-.49-3.58Z"/><path class="cls-1" d="M629.75,204.44l77.38,77.38a10.67,10.67,0,0,0,15.11,0l17.88-17.88a10.69,10.69,0,0,0,0-15.11l-43.9-43.9H633.33A13.63,13.63,0,0,1,629.75,204.44Z"/><path class="cls-1" d="M627,142.33a10.67,10.67,0,0,0-4.39,8.62v40.3a10.68,10.68,0,0,0,10.68,10.68h59.89l-56.66-56.65A10.68,10.68,0,0,0,627,142.33Z"/><polygon class="cls-1" points="897.53 198.84 897.54 198.84 879.65 180.95 897.53 198.84"/><path class="cls-1" d="M916.88,143.72l25.44,25.44L1060.94,50.54a10.69,10.69,0,0,0,0-15.11l-17.89-17.88a10.68,10.68,0,0,0-15.1,0L905.69,139.8c.5-.05,1-.09,1.52-.09A13.6,13.6,0,0,1,916.88,143.72Z"/><polygon class="cls-1" points="897.53 143.72 879.65 161.6 897.54 143.72 897.53 143.72"/><path class="cls-1" d="M1043.05,325l17.89-17.89a10.68,10.68,0,0,0,0-15.1L942.32,173.4l-25.44,25.44a13.59,13.59,0,0,1-9.67,4,12.79,12.79,0,0,1-1.52-.09L1028,325A10.68,10.68,0,0,0,1043.05,325Z"/><path class="cls-1" d="M914.76,196.71l25.44-25.43-25.44-25.44a10.69,10.69,0,0,0-15.11,0l-17.88,17.88a10.69,10.69,0,0,0,0,15.11l17.88,17.88A10.67,10.67,0,0,0,914.76,196.71Z"/><path class="cls-1" d="M1173,190.25a13.63,13.63,0,0,1-1.6,6.42l17.83-17.84a10.69,10.69,0,0,0,0-15.11l-16.51-16.5A13.67,13.67,0,0,1,1173,150Z"/><path class="cls-1" d="M1162.05,136.55l-76.38-76.38a10.66,10.66,0,0,0-15.1,0l-17.89,17.88a10.69,10.69,0,0,0,0,15.11l43.12,43.11h63.52A13.67,13.67,0,0,1,1162.05,136.55Z"/><path class="cls-1" d="M1094.55,139.27H999.44a13.74,13.74,0,0,1,4.24,2.88l58.78,58.78h94.38a13.68,13.68,0,0,1-2.72-2.09Z"/><path class="cls-1" d="M1170,190.25V150a10.68,10.68,0,0,0-10.68-10.68H1098.8l57.44,57.44a7.72,7.72,0,0,0,13.76-6.46Z"/><path class="cls-1" d="M994.75,203.44l77.38,77.38a10.67,10.67,0,0,0,15.11,0l17.88-17.88a10.69,10.69,0,0,0,0-15.11l-43.9-43.9H998.33A13.63,13.63,0,0,1,994.75,203.44Z"/><path class="cls-1" d="M984.65,150a13.67,13.67,0,0,1,.85-4.72l-16.93,16.93a10.69,10.69,0,0,0,0,15.11l16.57,16.56a13.63,13.63,0,0,1-.49-3.58Z"/><path class="cls-1" d="M992,141.33a10.67,10.67,0,0,0-4.39,8.62v40.3a10.68,10.68,0,0,0,10.68,10.68h59.89l-56.66-56.65A10.68,10.68,0,0,0,992,141.33Z"/><polygon class="cls-1" points="1262.53 197.84 1262.54 197.85 1244.65 179.95 1262.53 197.84"/><path class="cls-1" d="M1281.88,142.72l25.44,25.44L1425.94,49.54a10.69,10.69,0,0,0,0-15.11l-17.89-17.88a10.68,10.68,0,0,0-15.1,0L1270.69,138.8c.5-.05,1-.09,1.52-.09A13.6,13.6,0,0,1,1281.88,142.72Z"/><path class="cls-1" d="M1408.05,324l17.89-17.89a10.68,10.68,0,0,0,0-15.1L1307.32,172.4l-25.44,25.44a13.59,13.59,0,0,1-9.67,4,12.79,12.79,0,0,1-1.52-.09L1393,324A10.68,10.68,0,0,0,1408.05,324Z"/><path class="cls-1" d="M1279.76,195.71l25.44-25.43-25.44-25.44a10.69,10.69,0,0,0-15.11,0l-17.88,17.88a10.69,10.69,0,0,0,0,15.11l17.88,17.88A10.67,10.67,0,0,0,1279.76,195.71Z"/><path class="cls-1" d="M1527.05,135.55l-76.38-76.38a10.66,10.66,0,0,0-15.1,0l-17.89,17.88a10.69,10.69,0,0,0,0,15.11l43.12,43.11h63.52A13.67,13.67,0,0,1,1527.05,135.55Z"/><path class="cls-1" d="M1538,189.25a13.63,13.63,0,0,1-1.6,6.42l17.83-17.84a10.69,10.69,0,0,0,0-15.11l-16.51-16.5A13.67,13.67,0,0,1,1538,149Z"/><path class="cls-1" d="M1459.55,138.27h-95.11a13.74,13.74,0,0,1,4.24,2.88l58.78,58.78h94.38a13.68,13.68,0,0,1-2.72-2.09Z"/><path class="cls-1" d="M1535,189.25V149a10.68,10.68,0,0,0-10.68-10.68H1463.8l57.44,57.44a7.72,7.72,0,0,0,13.76-6.46Z"/><path class="cls-1" d="M1359.75,202.44l77.38,77.38a10.67,10.67,0,0,0,15.11,0l17.88-17.88a10.69,10.69,0,0,0,0-15.11l-43.9-43.9h-62.89A13.63,13.63,0,0,1,1359.75,202.44Z"/><path class="cls-1" d="M1349.65,149a13.67,13.67,0,0,1,.85-4.72l-16.93,16.93a10.69,10.69,0,0,0,0,15.11l16.57,16.56a13.63,13.63,0,0,1-.49-3.58Z"/><path class="cls-1" d="M1357,140.33a10.67,10.67,0,0,0-4.39,8.62v40.3a10.68,10.68,0,0,0,10.68,10.68h59.89l-56.66-56.65A10.68,10.68,0,0,0,1357,140.33Z"/><polygon class="cls-1" points="1627.53 196.84 1627.54 196.85 1609.65 178.95 1627.53 196.84"/><path class="cls-1" d="M1646.88,141.72l25.44,25.44L1790.94,48.54a10.69,10.69,0,0,0,0-15.11l-17.89-17.88a10.68,10.68,0,0,0-15.1,0L1635.69,137.8c.5-.05,1-.09,1.52-.09A13.6,13.6,0,0,1,1646.88,141.72Z"/><path class="cls-1" d="M1773.05,323l17.89-17.89a10.68,10.68,0,0,0,0-15.1L1672.32,171.4l-25.44,25.44a13.59,13.59,0,0,1-9.67,4,12.79,12.79,0,0,1-1.52-.09L1758,323A10.68,10.68,0,0,0,1773.05,323Z"/><path class="cls-1" d="M1644.76,194.71l25.44-25.43-25.44-25.44a10.69,10.69,0,0,0-15.11,0l-17.88,17.88a10.69,10.69,0,0,0,0,15.11l17.88,17.88A10.67,10.67,0,0,0,1644.76,194.71Z"/><path class="cls-2" d="M1919.5,176.53v4.27l1.85-1.85a13.68,13.68,0,0,0,0-19.35l-1.85-1.85V162A10.66,10.66,0,0,1,1919.5,176.53Z"/><path class="cls-2" d="M1919.5,162v14.51A10.66,10.66,0,0,0,1919.5,162Z"/><path class="cls-1" d="M1903,188.25a13.63,13.63,0,0,1-1.6,6.42l17.83-17.84c.1-.1.18-.2.27-.3V162c-.09-.1-.17-.2-.27-.3l-16.51-16.5A13.67,13.67,0,0,1,1903,148Z"/><path class="cls-1" d="M1892.05,134.55l-76.38-76.38a10.66,10.66,0,0,0-15.1,0l-17.89,17.88a10.69,10.69,0,0,0,0,15.11l43.12,43.11h63.52A13.67,13.67,0,0,1,1892.05,134.55Z"/><path class="cls-1" d="M1824.55,137.27h-95.11a13.74,13.74,0,0,1,4.24,2.88l58.78,58.78h94.38a13.68,13.68,0,0,1-2.72-2.09Z"/><path class="cls-1" d="M1900,188.25V148a10.68,10.68,0,0,0-10.68-10.68H1828.8l57.44,57.44a7.72,7.72,0,0,0,13.76-6.46Z"/><path class="cls-1" d="M1714.65,148a13.67,13.67,0,0,1,.85-4.72l-16.93,16.93a10.69,10.69,0,0,0,0,15.11l16.57,16.56a13.63,13.63,0,0,1-.49-3.58Z"/><path class="cls-1" d="M1724.75,201.44l77.38,77.38a10.67,10.67,0,0,0,15.11,0l17.88-17.88a10.69,10.69,0,0,0,0-15.11l-43.9-43.9h-62.89A13.63,13.63,0,0,1,1724.75,201.44Z"/><path class="cls-1" d="M1722,139.33a10.67,10.67,0,0,0-4.39,8.62v40.3a10.68,10.68,0,0,0,10.68,10.68h59.89l-56.66-56.65A10.68,10.68,0,0,0,1722,139.33Z"/><path class="cls-1" d="M142.44,956.7a10.68,10.68,0,0,0,0-15.1l-17.89-17.89a10.68,10.68,0,0,0-15.1,0L28.66,1004.5h66Z"/><path class="cls-1" d="M167.17,966.33a10.68,10.68,0,0,0-15.1,0l-17.89,17.89a10.68,10.68,0,0,0,0,15.1l5.18,5.18h66Z"/><path class="cls-1" d="M507.44,955.7a10.68,10.68,0,0,0,0-15.1l-17.89-17.89a10.68,10.68,0,0,0-15.1,0l-81.79,81.79h66Z"/><path class="cls-1" d="M532.17,965.33a10.68,10.68,0,0,0-15.1,0l-17.89,17.89a10.68,10.68,0,0,0,0,15.1l6.18,6.18h66Z"/><path class="cls-1" d="M875.44,955.7a10.68,10.68,0,0,0,0-15.1l-17.89-17.89a10.68,10.68,0,0,0-15.1,0l-81.79,81.79h66Z"/><path class="cls-1" d="M900.17,965.33a10.68,10.68,0,0,0-15.1,0l-17.89,17.89a10.68,10.68,0,0,0,0,15.1l6.18,6.18h66Z"/><path class="cls-1" d="M1240.44,954.7a10.68,10.68,0,0,0,0-15.1l-17.89-17.89a10.68,10.68,0,0,0-15.1,0l-82.79,82.79h66Z"/><path class="cls-1" d="M1265.17,964.33a10.68,10.68,0,0,0-15.1,0l-17.89,17.89a10.68,10.68,0,0,0,0,15.1l7.18,7.18h66Z"/><path class="cls-1" d="M1605.44,953.7a10.68,10.68,0,0,0,0-15.1l-17.89-17.89a10.68,10.68,0,0,0-15.1,0l-83.79,83.79h66Z"/><path class="cls-1" d="M1630.17,963.33a10.68,10.68,0,0,0-15.1,0l-17.89,17.89a10.68,10.68,0,0,0,0,15.1l8.18,8.18h66Z"/><polygon class="cls-1" points="1919.5 1004.5 1919.5 1003.64 1918.64 1004.5 1919.5 1004.5"/><polygon class="cls-1" points="1919.5 1003.64 1919.5 937.66 1852.66 1004.5 1918.64 1004.5 1919.5 1003.64"/><path class="cls-1" d="M.38,686.89l25.44,25.43L144.44,593.7a10.68,10.68,0,0,0,0-15.1l-17.89-17.89a10.68,10.68,0,0,0-15.1,0L-.5,672.66v13.43A11,11,0,0,1,.38,686.89Z"/><path class="cls-1" d="M-.5,742.8v13.43l112,111.95a10.68,10.68,0,0,0,15.1,0l17.89-17.89a10.68,10.68,0,0,0,0-15.1L25.82,716.57.38,742A11,11,0,0,1-.5,742.8Z"/><polygon class="cls-1" points="-0.5 738.64 23.7 714.44 -0.5 690.25 -0.5 738.64"/><path class="cls-1" d="M245.55,679.71l-76.38-76.38a10.68,10.68,0,0,0-15.1,0l-17.89,17.89a10.68,10.68,0,0,0,0,15.1l43.12,43.12h63.52A13.66,13.66,0,0,1,245.55,679.71Z"/><path class="cls-1" d="M256.5,733.42a13.56,13.56,0,0,1-1.6,6.41L272.73,722a10.69,10.69,0,0,0,0-15.11l-16.51-16.5a13.59,13.59,0,0,1,.28,2.73Z"/><path class="cls-1" d="M178.05,682.44H82.94a13.57,13.57,0,0,1,4.24,2.88L146,744.1h94.38a13.37,13.37,0,0,1-2.72-2.1Z"/><path class="cls-1" d="M253.5,733.42v-40.3a10.68,10.68,0,0,0-10.68-10.68H182.3l57.44,57.44a10.65,10.65,0,0,0,7.78,3.12A10.67,10.67,0,0,0,253.5,733.42Z"/><path class="cls-1" d="M68.15,693.12A13.67,13.67,0,0,1,69,688.4L52.07,705.33a10.68,10.68,0,0,0,0,15.1L68.64,737a13.55,13.55,0,0,1-.49-3.57Z"/><path class="cls-1" d="M78.25,746.61,155.63,824a10.69,10.69,0,0,0,15.11,0l17.88-17.88a10.69,10.69,0,0,0,0-15.11l-43.9-43.9H81.83A13.63,13.63,0,0,1,78.25,746.61Z"/><path class="cls-1" d="M75.54,684.5a10.64,10.64,0,0,0-4.39,8.62v40.3A10.68,10.68,0,0,0,81.83,744.1h59.89L85.06,687.44A10.65,10.65,0,0,0,75.54,684.5Z"/><path class="cls-1" d="M324.73,717.43a13.53,13.53,0,0,0,3.42,5.69L346,741h0l-17.89-17.89A13.53,13.53,0,0,1,324.73,717.43Z"/><path class="cls-1" d="M365.38,685.89l25.44,25.43L509.44,592.7a10.68,10.68,0,0,0,0-15.1l-17.89-17.89a10.68,10.68,0,0,0-15.1,0L354.19,682a12.79,12.79,0,0,1,1.52-.09A13.56,13.56,0,0,1,365.38,685.89Z"/><path class="cls-1" d="M355.71,745a12.79,12.79,0,0,1-1.52-.09L476.45,867.18a10.68,10.68,0,0,0,15.1,0l17.89-17.89a10.68,10.68,0,0,0,0-15.1L390.82,715.57,365.38,741A13.56,13.56,0,0,1,355.71,745Z"/><path class="cls-1" d="M363.26,738.88l25.44-25.44L363.26,688a10.69,10.69,0,0,0-15.11,0l-17.88,17.88a10.69,10.69,0,0,0,0,15.11l17.88,17.88A10.69,10.69,0,0,0,363.26,738.88Z"/><path class="cls-1" d="M610.55,678.71l-76.38-76.38a10.68,10.68,0,0,0-15.1,0l-17.89,17.89a10.68,10.68,0,0,0,0,15.1l43.12,43.12h63.52A13.66,13.66,0,0,1,610.55,678.71Z"/><path class="cls-1" d="M621.5,732.42a13.56,13.56,0,0,1-1.6,6.41L637.73,721a10.69,10.69,0,0,0,0-15.11l-16.51-16.5a13.59,13.59,0,0,1,.28,2.73Z"/><path class="cls-1" d="M543.05,681.44H447.94a13.57,13.57,0,0,1,4.24,2.88L511,743.1h94.38a13.37,13.37,0,0,1-2.72-2.1Z"/><path class="cls-1" d="M618.5,732.42v-40.3a10.68,10.68,0,0,0-10.68-10.68H547.3l57.44,57.44a7.72,7.72,0,0,0,13.76-6.46Z"/><path class="cls-1" d="M443.25,745.61,520.63,823a10.69,10.69,0,0,0,15.11,0l17.88-17.88a10.69,10.69,0,0,0,0-15.11l-43.9-43.9H446.83A13.63,13.63,0,0,1,443.25,745.61Z"/><path class="cls-1" d="M433.15,692.12a13.67,13.67,0,0,1,.85-4.72l-16.93,16.93a10.68,10.68,0,0,0,0,15.1L433.64,736a13.55,13.55,0,0,1-.49-3.57Z"/><path class="cls-1" d="M440.54,683.5a10.64,10.64,0,0,0-4.39,8.62v40.3a10.68,10.68,0,0,0,10.68,10.68h59.89l-56.66-56.66A10.65,10.65,0,0,0,440.54,683.5Z"/><path class="cls-1" d="M692.73,717.43a13.53,13.53,0,0,0,3.42,5.69L714,741h0l-17.89-17.89A13.53,13.53,0,0,1,692.73,717.43Z"/><path class="cls-1" d="M733.38,685.89l25.44,25.43L877.44,592.7a10.68,10.68,0,0,0,0-15.1l-17.89-17.89a10.68,10.68,0,0,0-15.1,0L722.19,682a12.79,12.79,0,0,1,1.52-.09A13.56,13.56,0,0,1,733.38,685.89Z"/><path class="cls-1" d="M723.71,745a12.79,12.79,0,0,1-1.52-.09L844.45,867.18a10.68,10.68,0,0,0,15.1,0l17.89-17.89a10.68,10.68,0,0,0,0-15.1L758.82,715.57,733.38,741A13.56,13.56,0,0,1,723.71,745Z"/><path class="cls-1" d="M731.26,738.88l25.44-25.44L731.26,688a10.69,10.69,0,0,0-15.11,0l-17.88,17.88a10.69,10.69,0,0,0,0,15.11l17.88,17.88A10.69,10.69,0,0,0,731.26,738.88Z"/><path class="cls-1" d="M978.55,678.71l-76.38-76.38a10.68,10.68,0,0,0-15.1,0l-17.89,17.89a10.68,10.68,0,0,0,0,15.1l43.12,43.12h63.52A13.66,13.66,0,0,1,978.55,678.71Z"/><path class="cls-1" d="M989.5,732.42a13.56,13.56,0,0,1-1.6,6.41L1005.73,721a10.69,10.69,0,0,0,0-15.11l-16.51-16.5a13.59,13.59,0,0,1,.28,2.73Z"/><path class="cls-1" d="M911.05,681.44H815.94a13.57,13.57,0,0,1,4.24,2.88L879,743.1h94.38a13.37,13.37,0,0,1-2.72-2.1Z"/><path class="cls-1" d="M986.5,732.42v-40.3a10.68,10.68,0,0,0-10.68-10.68H915.3l57.44,57.44a7.72,7.72,0,0,0,13.76-6.46Z"/><path class="cls-1" d="M801.15,692.12a13.67,13.67,0,0,1,.85-4.72l-16.93,16.93a10.68,10.68,0,0,0,0,15.1L801.64,736a13.55,13.55,0,0,1-.49-3.57Z"/><path class="cls-1" d="M811.25,745.61,888.63,823a10.69,10.69,0,0,0,15.11,0l17.88-17.88a10.69,10.69,0,0,0,0-15.11l-43.9-43.9H814.83A13.63,13.63,0,0,1,811.25,745.61Z"/><path class="cls-1" d="M808.54,683.5a10.64,10.64,0,0,0-4.39,8.62v40.3a10.68,10.68,0,0,0,10.68,10.68h59.89l-56.66-56.66A10.65,10.65,0,0,0,808.54,683.5Z"/><path class="cls-1" d="M1079,740l0,0-17.9-17.9Z"/><path class="cls-1" d="M1098.38,684.89l25.44,25.43L1242.44,591.7a10.68,10.68,0,0,0,0-15.1l-17.89-17.89a10.68,10.68,0,0,0-15.1,0L1087.19,681a12.79,12.79,0,0,1,1.52-.09A13.56,13.56,0,0,1,1098.38,684.89Z"/><path class="cls-1" d="M1088.71,744a12.79,12.79,0,0,1-1.52-.09l122.26,122.26a10.68,10.68,0,0,0,15.1,0l17.89-17.89a10.68,10.68,0,0,0,0-15.1L1123.82,714.57,1098.38,740A13.56,13.56,0,0,1,1088.71,744Z"/><path class="cls-1" d="M1096.26,737.88l25.44-25.44L1096.26,687a10.69,10.69,0,0,0-15.11,0l-17.88,17.88a10.69,10.69,0,0,0,0,15.11l17.88,17.88A10.69,10.69,0,0,0,1096.26,737.88Z"/><path class="cls-1" d="M1354.5,731.42a13.56,13.56,0,0,1-1.6,6.41L1370.73,720a10.69,10.69,0,0,0,0-15.11l-16.51-16.5a13.59,13.59,0,0,1,.28,2.73Z"/><path class="cls-1" d="M1343.55,677.71l-76.38-76.38a10.68,10.68,0,0,0-15.1,0l-17.89,17.89a10.68,10.68,0,0,0,0,15.1l43.12,43.12h63.52A13.66,13.66,0,0,1,1343.55,677.71Z"/><path class="cls-1" d="M1276.05,680.44h-95.11a13.57,13.57,0,0,1,4.24,2.88L1244,742.1h94.38a13.37,13.37,0,0,1-2.72-2.1Z"/><path class="cls-1" d="M1351.5,731.42v-40.3a10.68,10.68,0,0,0-10.68-10.68H1280.3l57.44,57.44a7.72,7.72,0,0,0,13.76-6.46Z"/><path class="cls-1" d="M1176.25,744.61,1253.63,822a10.69,10.69,0,0,0,15.11,0l17.88-17.88a10.69,10.69,0,0,0,0-15.11l-43.9-43.9h-62.89A13.63,13.63,0,0,1,1176.25,744.61Z"/><path class="cls-1" d="M1166.15,691.12a13.67,13.67,0,0,1,.85-4.72l-16.93,16.93a10.68,10.68,0,0,0,0,15.1L1166.64,735a13.69,13.69,0,0,1-.49-3.58Z"/><path class="cls-1" d="M1173.54,682.5a10.64,10.64,0,0,0-4.39,8.62v40.3a10.68,10.68,0,0,0,10.68,10.68h59.89l-56.66-56.66A10.65,10.65,0,0,0,1173.54,682.5Z"/><path class="cls-1" d="M1444,739l0,0-17.9-17.9Z"/><path class="cls-1" d="M1463.38,683.89l25.44,25.43L1607.44,590.7a10.68,10.68,0,0,0,0-15.1l-17.89-17.89a10.68,10.68,0,0,0-15.1,0L1452.19,680a12.79,12.79,0,0,1,1.52-.09A13.56,13.56,0,0,1,1463.38,683.89Z"/><path class="cls-1" d="M1453.71,743a12.79,12.79,0,0,1-1.52-.09l122.26,122.26a10.68,10.68,0,0,0,15.1,0l17.89-17.89a10.68,10.68,0,0,0,0-15.1L1488.82,713.57,1463.38,739A13.56,13.56,0,0,1,1453.71,743Z"/><path class="cls-1" d="M1461.26,736.88l25.44-25.44L1461.26,686a10.69,10.69,0,0,0-15.11,0l-17.88,17.88a10.69,10.69,0,0,0,0,15.11l17.88,17.88A10.69,10.69,0,0,0,1461.26,736.88Z"/><path class="cls-1" d="M1708.55,676.71l-76.38-76.38a10.68,10.68,0,0,0-15.1,0l-17.89,17.89a10.68,10.68,0,0,0,0,15.1l43.12,43.12h63.52A13.66,13.66,0,0,1,1708.55,676.71Z"/><path class="cls-1" d="M1719.5,730.42a13.56,13.56,0,0,1-1.6,6.41L1735.73,719a10.69,10.69,0,0,0,0-15.11l-16.51-16.5a13.59,13.59,0,0,1,.28,2.73Z"/><path class="cls-1" d="M1641.05,679.44h-95.11a13.57,13.57,0,0,1,4.24,2.88L1609,741.1h94.38a13.37,13.37,0,0,1-2.72-2.1Z"/><path class="cls-1" d="M1716.5,730.42v-40.3a10.68,10.68,0,0,0-10.68-10.68H1645.3l57.44,57.44a7.72,7.72,0,0,0,13.76-6.46Z"/><path class="cls-1" d="M1541.25,743.61,1618.63,821a10.69,10.69,0,0,0,15.11,0l17.88-17.88a10.69,10.69,0,0,0,0-15.11l-43.9-43.9h-62.89A13.63,13.63,0,0,1,1541.25,743.61Z"/><path class="cls-1" d="M1531.15,690.12a13.67,13.67,0,0,1,.85-4.72l-16.93,16.93a10.68,10.68,0,0,0,0,15.1L1531.64,734a13.69,13.69,0,0,1-.49-3.58Z"/><path class="cls-1" d="M1538.54,681.5a10.64,10.64,0,0,0-4.39,8.62v40.3a10.68,10.68,0,0,0,10.68,10.68h59.89l-56.66-56.66A10.65,10.65,0,0,0,1538.54,681.5Z"/><path class="cls-1" d="M1809,738l0,0-17.9-17.9Z"/><path class="cls-1" d="M1828.38,682.89l25.44,25.43,65.68-65.68v-66L1817.19,679a12.79,12.79,0,0,1,1.52-.09A13.56,13.56,0,0,1,1828.38,682.89Z"/><path class="cls-1" d="M1818.71,742a12.79,12.79,0,0,1-1.52-.09L1919.5,844.23v-66l-65.68-65.68L1828.38,738A13.56,13.56,0,0,1,1818.71,742Z"/><path class="cls-1" d="M1826.26,735.88l25.44-25.44L1826.26,685a10.69,10.69,0,0,0-15.11,0l-17.88,17.88a10.69,10.69,0,0,0,0,15.11l17.88,17.88A10.69,10.69,0,0,0,1826.26,735.88Z"/><path class="cls-1" d="M1919.5,685.64v-7.2h-8.56a13.57,13.57,0,0,1,4.24,2.88Z"/><path class="cls-1" d="M1896.15,689.12a13.67,13.67,0,0,1,.85-4.72l-16.93,16.93a10.68,10.68,0,0,0,0,15.1L1896.64,733a13.69,13.69,0,0,1-.49-3.58Z"/><path class="cls-1" d="M1909.83,743.1a13.63,13.63,0,0,1-3.58-.49l13.25,13.25V743.1Z"/><path class="cls-1" d="M1899.15,689.12v40.3a10.68,10.68,0,0,0,10.68,10.68h9.67V689.88l-6.44-6.44a7.62,7.62,0,0,0-13.91,5.68Z"/><path class="cls-1" d="M59.32,858.27a13.67,13.67,0,0,1,2.73.28L-.5,796v62.28Z"/><path class="cls-1" d="M73,912.25a13.63,13.63,0,0,1-1.6,6.42l17.83-17.84a10.69,10.69,0,0,0,0-15.11l-16.51-16.5A13.67,13.67,0,0,1,73,872Z"/><path class="cls-1" d="M-.5,866.22v56.71H56.84a13.68,13.68,0,0,1-2.72-2.09Z"/><path class="cls-1" d="M70,912.25V872a10.68,10.68,0,0,0-10.68-10.68H-.5v.7l56.74,56.74A10.61,10.61,0,0,0,64,921.83,10.67,10.67,0,0,0,70,912.25Z"/><path class="cls-1" d="M5.12,984.94a10.69,10.69,0,0,0,0-15.11L-.5,964.21v26.35Z"/><path class="cls-1" d="M181.88,864.72l25.44,25.44L325.94,771.54a10.69,10.69,0,0,0,0-15.11l-17.89-17.88a10.68,10.68,0,0,0-15.1,0L170.69,860.8c.5,0,1-.09,1.52-.09A13.6,13.6,0,0,1,181.88,864.72Z"/><path class="cls-1" d="M172.21,923.84a12.79,12.79,0,0,1-1.52-.09l80.75,80.75h66L207.32,894.4l-25.44,25.44A13.59,13.59,0,0,1,172.21,923.84Z"/><path class="cls-1" d="M179.76,917.71l25.44-25.43-25.44-25.44a10.69,10.69,0,0,0-15.11,0l-17.88,17.88a10.69,10.69,0,0,0,0,15.11l17.88,17.88A10.67,10.67,0,0,0,179.76,917.71Z"/><path class="cls-1" d="M438,911.25a13.63,13.63,0,0,1-1.6,6.42l17.83-17.84a10.69,10.69,0,0,0,0-15.11l-16.51-16.5A13.67,13.67,0,0,1,438,871Z"/><path class="cls-1" d="M427.05,857.55l-76.38-76.38a10.66,10.66,0,0,0-15.1,0l-17.89,17.88a10.69,10.69,0,0,0,0,15.11l43.12,43.11h63.52A13.67,13.67,0,0,1,427.05,857.55Z"/><path class="cls-1" d="M327.46,921.93h94.38a13.68,13.68,0,0,1-2.72-2.09l-59.57-59.57H264.44a13.74,13.74,0,0,1,4.24,2.88Z"/><path class="cls-1" d="M429,920.83a10.67,10.67,0,0,0,6-9.58V871a10.68,10.68,0,0,0-10.68-10.68H363.8l57.44,57.44A10.61,10.61,0,0,0,429,920.83Z"/><path class="cls-2" d="M341.61,1004.5h-6a13.63,13.63,0,0,0,18.13,0h-6A10.73,10.73,0,0,1,341.61,1004.5Z"/><path class="cls-2" d="M347.76,1004.5h-6.15A10.73,10.73,0,0,0,347.76,1004.5Z"/><path class="cls-1" d="M249.65,871a13.67,13.67,0,0,1,.85-4.72l-16.93,16.93a10.69,10.69,0,0,0,0,15.11l16.57,16.56a13.63,13.63,0,0,1-.49-3.58Z"/><path class="cls-1" d="M259.75,924.44l77.38,77.38a10.61,10.61,0,0,0,4.48,2.68h6.15a10.61,10.61,0,0,0,4.48-2.68l17.88-17.88a10.69,10.69,0,0,0,0-15.11l-43.9-43.9H263.33A13.63,13.63,0,0,1,259.75,924.44Z"/><path class="cls-1" d="M252.65,871v40.3a10.68,10.68,0,0,0,10.68,10.68h59.89l-56.66-56.65a10.68,10.68,0,0,0-9.52-2.95A10.67,10.67,0,0,0,252.65,871Z"/><path class="cls-1" d="M549.88,864.72l25.44,25.44L693.94,771.54a10.69,10.69,0,0,0,0-15.11l-17.89-17.88a10.68,10.68,0,0,0-15.1,0L538.69,860.8c.5,0,1-.09,1.52-.09A13.6,13.6,0,0,1,549.88,864.72Z"/><path class="cls-1" d="M540.21,923.84a12.79,12.79,0,0,1-1.52-.09l80.75,80.75h66L575.32,894.4l-25.44,25.44A13.59,13.59,0,0,1,540.21,923.84Z"/><path class="cls-1" d="M547.76,917.71l25.44-25.43-25.44-25.44a10.69,10.69,0,0,0-15.11,0l-17.88,17.88a10.69,10.69,0,0,0,0,15.11l17.88,17.88A10.67,10.67,0,0,0,547.76,917.71Z"/><path class="cls-1" d="M795.05,857.55l-76.38-76.38a10.66,10.66,0,0,0-15.1,0l-17.89,17.88a10.69,10.69,0,0,0,0,15.11l43.12,43.11h63.52A13.67,13.67,0,0,1,795.05,857.55Z"/><path class="cls-1" d="M806,911.25a13.63,13.63,0,0,1-1.6,6.42l17.83-17.84a10.69,10.69,0,0,0,0-15.11l-16.51-16.5A13.67,13.67,0,0,1,806,871Z"/><path class="cls-1" d="M695.46,921.93h94.38a13.68,13.68,0,0,1-2.72-2.09l-59.57-59.57H632.44a13.74,13.74,0,0,1,4.24,2.88Z"/><path class="cls-1" d="M797,920.83a10.67,10.67,0,0,0,6-9.58V871a10.68,10.68,0,0,0-10.68-10.68H731.8l57.44,57.44A10.61,10.61,0,0,0,797,920.83Z"/><path class="cls-2" d="M709.61,1004.5h-6a13.63,13.63,0,0,0,18.13,0h-6A10.73,10.73,0,0,1,709.61,1004.5Z"/><path class="cls-2" d="M715.76,1004.5h-6.15A10.73,10.73,0,0,0,715.76,1004.5Z"/><path class="cls-1" d="M627.75,924.44l77.38,77.38a10.61,10.61,0,0,0,4.48,2.68h6.15a10.61,10.61,0,0,0,4.48-2.68l17.88-17.88a10.69,10.69,0,0,0,0-15.11l-43.9-43.9H631.33A13.63,13.63,0,0,1,627.75,924.44Z"/><path class="cls-1" d="M617.65,871a13.67,13.67,0,0,1,.85-4.72l-16.93,16.93a10.69,10.69,0,0,0,0,15.11l16.57,16.56a13.63,13.63,0,0,1-.49-3.58Z"/><path class="cls-1" d="M620.65,871v40.3a10.68,10.68,0,0,0,10.68,10.68h59.89l-56.66-56.65A7.62,7.62,0,0,0,620.65,871Z"/><path class="cls-1" d="M914.88,863.72l25.44,25.44,118.62-118.62a10.69,10.69,0,0,0,0-15.11l-17.89-17.88a10.68,10.68,0,0,0-15.1,0L903.69,859.8c.5,0,1-.09,1.52-.09A13.6,13.6,0,0,1,914.88,863.72Z"/><path class="cls-1" d="M905.21,922.84a12.79,12.79,0,0,1-1.52-.09l81.75,81.75h66L940.32,893.4l-25.44,25.44A13.59,13.59,0,0,1,905.21,922.84Z"/><path class="cls-1" d="M912.76,916.71l25.44-25.43-25.44-25.44a10.69,10.69,0,0,0-15.11,0l-17.88,17.88a10.69,10.69,0,0,0,0,15.11l17.88,17.88A10.67,10.67,0,0,0,912.76,916.71Z"/><path class="cls-1" d="M1160.05,856.55l-76.38-76.38a10.66,10.66,0,0,0-15.1,0l-17.89,17.88a10.69,10.69,0,0,0,0,15.11l43.12,43.11h63.52A13.67,13.67,0,0,1,1160.05,856.55Z"/><path class="cls-1" d="M1171,910.25a13.63,13.63,0,0,1-1.6,6.42l17.83-17.84a10.69,10.69,0,0,0,0-15.11l-16.51-16.5A13.67,13.67,0,0,1,1171,870Z"/><path class="cls-1" d="M1060.46,920.93h94.38a14,14,0,0,1-2.72-2.09l-59.57-59.57H997.44a13.74,13.74,0,0,1,4.24,2.88Z"/><path class="cls-1" d="M1162,919.83a10.67,10.67,0,0,0,6-9.58V870a10.68,10.68,0,0,0-10.68-10.68H1096.8l57.44,57.44A10.61,10.61,0,0,0,1162,919.83Z"/><path class="cls-2" d="M1077.68,1007a13.57,13.57,0,0,0,7.81-2.45h-15.61A13.56,13.56,0,0,0,1077.68,1007Z"/><path class="cls-1" d="M982.65,870a13.67,13.67,0,0,1,.85-4.72l-16.93,16.93a10.69,10.69,0,0,0,0,15.11l16.57,16.56a13.63,13.63,0,0,1-.49-3.58Z"/><path class="cls-1" d="M992.75,923.44l77.38,77.38a10.67,10.67,0,0,0,15.11,0l17.88-17.88a10.69,10.69,0,0,0,0-15.11l-43.9-43.9H996.33A13.63,13.63,0,0,1,992.75,923.44Z"/><path class="cls-1" d="M985.65,870v40.3a10.68,10.68,0,0,0,10.68,10.68h59.89l-56.66-56.65A7.62,7.62,0,0,0,985.65,870Z"/><path class="cls-1" d="M1238.64,890.28a13.55,13.55,0,0,0,2.29,7.58,13.55,13.55,0,0,1-2.29-7.58Z"/><path class="cls-1" d="M1279.88,862.72l25.44,25.44,118.62-118.62a10.69,10.69,0,0,0,0-15.11l-17.89-17.88a10.68,10.68,0,0,0-15.1,0L1268.69,858.8c.5,0,1-.09,1.52-.09A13.6,13.6,0,0,1,1279.88,862.72Z"/><path class="cls-1" d="M1238.64,890.28h0a13.61,13.61,0,0,1,2.29-7.59A13.61,13.61,0,0,0,1238.64,890.28Z"/><path class="cls-1" d="M1270.21,921.84a12.79,12.79,0,0,1-1.52-.09l82.75,82.75h66l-112.1-112.1-25.44,25.44A13.59,13.59,0,0,1,1270.21,921.84Z"/><path class="cls-1" d="M1277.76,915.71l25.44-25.43-25.44-25.44a10.69,10.69,0,0,0-15.11,0l-17.88,17.88a10.69,10.69,0,0,0,0,15.11l17.88,17.88A10.67,10.67,0,0,0,1277.76,915.71Z"/><path class="cls-1" d="M1525.05,855.55l-76.38-76.38a10.66,10.66,0,0,0-15.1,0l-17.89,17.88a10.69,10.69,0,0,0,0,15.11l43.12,43.11h63.52A13.67,13.67,0,0,1,1525.05,855.55Z"/><path class="cls-1" d="M1536,909.25a13.63,13.63,0,0,1-1.6,6.42l17.83-17.84a10.69,10.69,0,0,0,0-15.11l-16.51-16.5A13.67,13.67,0,0,1,1536,869Z"/><path class="cls-1" d="M1425.46,919.93h94.38a14,14,0,0,1-2.72-2.09l-59.57-59.57h-95.11a13.74,13.74,0,0,1,4.24,2.88Z"/><path class="cls-1" d="M1527,918.83a10.67,10.67,0,0,0,6-9.58V869a10.68,10.68,0,0,0-10.68-10.68H1461.8l57.44,57.44A10.61,10.61,0,0,0,1527,918.83Z"/><path class="cls-2" d="M1442.68,1006a13.66,13.66,0,0,0,6.13-1.45h-12.25A13.65,13.65,0,0,0,1442.68,1006Z"/><path class="cls-1" d="M1357.75,922.44l77.38,77.38a10.67,10.67,0,0,0,15.11,0l17.88-17.88a10.69,10.69,0,0,0,0-15.11l-43.9-43.9h-62.89A13.63,13.63,0,0,1,1357.75,922.44Z"/><path class="cls-1" d="M1347.65,869a13.67,13.67,0,0,1,.85-4.72l-16.93,16.93a10.69,10.69,0,0,0,0,15.11l16.57,16.56a13.63,13.63,0,0,1-.49-3.58Z"/><path class="cls-1" d="M1350.65,869v40.3a10.68,10.68,0,0,0,10.68,10.68h59.89l-56.66-56.65a7.62,7.62,0,0,0-13.91,5.67Z"/><path class="cls-1" d="M1603.64,889.28a13.55,13.55,0,0,0,2.29,7.58,13.55,13.55,0,0,1-2.29-7.58Z"/><path class="cls-1" d="M1644.88,861.72l25.44,25.44,118.62-118.62a10.69,10.69,0,0,0,0-15.11l-17.89-17.88a10.68,10.68,0,0,0-15.1,0L1633.69,857.8c.5,0,1-.09,1.52-.09A13.6,13.6,0,0,1,1644.88,861.72Z"/><path class="cls-1" d="M1603.64,889.28h0a13.61,13.61,0,0,1,2.29-7.59A13.61,13.61,0,0,0,1603.64,889.28Z"/><path class="cls-1" d="M1635.21,920.84a12.79,12.79,0,0,1-1.52-.09l83.75,83.75h66l-113.1-113.1-25.44,25.44A13.59,13.59,0,0,1,1635.21,920.84Z"/><path class="cls-1" d="M1642.76,914.71l25.44-25.43-25.44-25.44a10.69,10.69,0,0,0-15.11,0l-17.88,17.88a10.69,10.69,0,0,0,0,15.11l17.88,17.88A10.67,10.67,0,0,0,1642.76,914.71Z"/><path class="cls-2" d="M1919.5,893.46v5.33a13.65,13.65,0,0,0,0-19v5.32A10.67,10.67,0,0,1,1919.5,893.46Z"/><path class="cls-2" d="M1919.5,885.09v8.37A10.67,10.67,0,0,0,1919.5,885.09Z"/><path class="cls-1" d="M1890.05,854.55l-76.38-76.38a10.66,10.66,0,0,0-15.1,0l-17.89,17.88a10.69,10.69,0,0,0,0,15.11l43.12,43.11h63.52A13.67,13.67,0,0,1,1890.05,854.55Z"/><path class="cls-1" d="M1901,908.25a13.63,13.63,0,0,1-1.6,6.42l17.83-17.84a10.55,10.55,0,0,0,2.27-3.37v-8.37a10.66,10.66,0,0,0-2.27-3.37l-16.51-16.5A13.67,13.67,0,0,1,1901,868Z"/><path class="cls-1" d="M1790.46,918.93h94.38a14,14,0,0,1-2.72-2.09l-59.57-59.57h-95.11a13.74,13.74,0,0,1,4.24,2.88Z"/><path class="cls-1" d="M1892,917.83a10.67,10.67,0,0,0,6-9.58V868a10.68,10.68,0,0,0-10.68-10.68H1826.8l57.44,57.44A10.61,10.61,0,0,0,1892,917.83Z"/><path class="cls-2" d="M1807.68,1005a13.6,13.6,0,0,0,3.45-.45h-6.89A13.58,13.58,0,0,0,1807.68,1005Z"/><path class="cls-1" d="M1722.75,921.44l77.38,77.38a10.67,10.67,0,0,0,15.11,0l17.88-17.88a10.69,10.69,0,0,0,0-15.11l-43.9-43.9h-62.89A13.63,13.63,0,0,1,1722.75,921.44Z"/><path class="cls-1" d="M1712.65,868a13.67,13.67,0,0,1,.85-4.72l-16.93,16.93a10.69,10.69,0,0,0,0,15.11l16.57,16.56a13.63,13.63,0,0,1-.49-3.58Z"/><path class="cls-1" d="M1715.65,868v40.3a10.68,10.68,0,0,0,10.68,10.68h59.89l-56.66-56.65a7.62,7.62,0,0,0-13.91,5.67Z"/></g></svg>