<svg id="Layer_1" data-name="Layer 1" xmlns="http://www.w3.org/2000/svg" viewBox="0 0 1920 1005"><defs><style>.cls-1{fill:#070e20;}</style></defs><path class="cls-1" d="M1809,381l-17.88-17.88a13.68,13.68,0,0,1,0-19.35L1809,325.89h0L1919.5,215.42V180.8l-16,16a34.16,34.16,0,0,1-14.15,5.09h-93.86l41.78,41.78a13.68,13.68,0,0,1,0,19.35L1819.36,281a13.7,13.7,0,0,1-19.35,0L1696.45,177.39a13.71,13.71,0,0,1,0-19.35l17.89-17.89a13.56,13.56,0,0,1,6.46-3.61,13.6,13.6,0,0,1,7.53-2.27h93.22l-41-41a13.71,13.71,0,0,1,0-19.35L1798.45,56a13.69,13.69,0,0,1,19.34,0L1919.5,157.75V126.47L1811,18h0L1793.15.12c-.2-.2-.38-.41-.56-.62h-51.37a14,14,0,0,1-1.37,1.62L1722,19a13.57,13.57,0,0,1-8.71,4,13.55,13.55,0,0,1-5.44,1.14H1614l41.78,41.78a13.68,13.68,0,0,1,0,19.35l-17.88,17.88a13.68,13.68,0,0,1-19.35,0L1515-.45s0,0,0,0H1501l110.57,110.56a13.68,13.68,0,0,1,0,19.35l-17.89,17.89a13.69,13.69,0,0,1-19.34,0L1446,19h0L1428.15,1.12a14,14,0,0,1-1.37-1.62h-49.89a13.79,13.79,0,0,1-2,2.62L1357,20a13.57,13.57,0,0,1-8.71,4,13.55,13.55,0,0,1-5.44,1.14H1249l41.78,41.78a13.68,13.68,0,0,1,0,19.35l-17.88,17.88a13.68,13.68,0,0,1-19.35,0L1150,.55c-.34-.34-.65-.69-1-1h-14l111.57,111.56a13.68,13.68,0,0,1,0,19.35l-17.89,17.89a13.69,13.69,0,0,1-19.34,0L1081,20h0L1063.15,2.12a13.79,13.79,0,0,1-2-2.62h-48.67a13.88,13.88,0,0,1-2.59,3.62L992,21a13.57,13.57,0,0,1-8.71,4,13.55,13.55,0,0,1-5.44,1.14H884l41.78,41.78a13.69,13.69,0,0,1,0,19.35l-17.88,17.88a13.68,13.68,0,0,1-19.35,0L785,1.55a13.45,13.45,0,0,1-1.68-2H769L881.56,112.06a13.68,13.68,0,0,1,0,19.35L863.67,149.3a13.69,13.69,0,0,1-19.34,0L716,21h0L698.15,3.12A13.88,13.88,0,0,1,695.56-.5H644.44a13.88,13.88,0,0,1-2.59,3.62L624,21a13.57,13.57,0,0,1-8.71,4,13.55,13.55,0,0,1-5.44,1.14H516l41.78,41.78a13.69,13.69,0,0,1,0,19.35l-17.88,17.88a13.68,13.68,0,0,1-19.35,0L417,1.55a13.45,13.45,0,0,1-1.68-2H401L513.56,112.06a13.68,13.68,0,0,1,0,19.35L495.67,149.3a13.69,13.69,0,0,1-19.34,0L348,21h0L330.15,3.12A13.88,13.88,0,0,1,327.56-.5H279.89a13.65,13.65,0,0,1-3,4.62L259,22a13.57,13.57,0,0,1-8.71,4,13.55,13.55,0,0,1-5.44,1.14H151l41.78,41.78a13.69,13.69,0,0,1,0,19.35l-17.88,17.88a13.68,13.68,0,0,1-19.35,0L52,2.55a13.61,13.61,0,0,1-2.29-3H35L148.56,113.06a13.68,13.68,0,0,1,0,19.35L130.67,150.3a13.69,13.69,0,0,1-19.34,0L-.5,38.47V69.75L93.35,163.6a13.69,13.69,0,0,1,0,19.35L75.47,200.84a13.62,13.62,0,0,1-8.71,4,13.72,13.72,0,0,1-5.44,1.13H-.5v32l9.74,9.74a13.69,13.69,0,0,1,0,19.35L-.5,276.8v34.62L109.33,201.59a13.69,13.69,0,0,1,19.34,0l17.89,17.89a13.66,13.66,0,0,1,0,19.34L27.94,357.44,146.56,476.06a13.68,13.68,0,0,1,0,19.35L128.67,513.3a13.69,13.69,0,0,1-19.34,0L-.5,403.47v31.28L91.35,526.6a13.69,13.69,0,0,1,0,19.35L73.47,563.84a13.62,13.62,0,0,1-8.71,4,13.72,13.72,0,0,1-5.44,1.13H-.5v34l7.74,7.74a13.69,13.69,0,0,1,0,19.35L-.5,637.8v30.62L109.33,558.59a13.66,13.66,0,0,1,19.34,0l17.89,17.89a13.66,13.66,0,0,1,0,19.34L27.94,714.44,146.56,833.06a13.68,13.68,0,0,1,0,19.35L128.67,870.3a13.69,13.69,0,0,1-19.34,0L-.5,760.47v31.28L91.35,883.6a13.69,13.69,0,0,1,0,19.35L73.47,920.84a13.62,13.62,0,0,1-8.71,4,13.72,13.72,0,0,1-5.44,1.13H-.5v34l7.74,7.74a13.69,13.69,0,0,1,0,19.35L-.5,994.8v9.7H24.42l82.91-82.91a13.66,13.66,0,0,1,19.34,0l17.89,17.89a13.66,13.66,0,0,1,0,19.34L98.88,1004.5h36.24l-3.06-3.06a13.66,13.66,0,0,1,0-19.34l17.88-17.89a13.68,13.68,0,0,1,19.35,0l40.29,40.29H247.2l-84.67-84.66L144.65,902a13.69,13.69,0,0,1,0-19.35L290.83,736.43a13.66,13.66,0,0,1,19.34,0l17.89,17.88a13.68,13.68,0,0,1,0,19.35L209.44,892.28,321.66,1004.5h14L335,1004,231.45,900.39a13.68,13.68,0,0,1,0-19.35l17.89-17.89a13.56,13.56,0,0,1,6.46-3.61,13.6,13.6,0,0,1,7.53-2.27h93.22l-41-41a13.71,13.71,0,0,1,0-19.35L333.44,779a13.7,13.7,0,0,1,19.35,0L456.35,882.6a13.69,13.69,0,0,1,0,19.35l-17.88,17.89a13.62,13.62,0,0,1-8.71,4,13.72,13.72,0,0,1-5.44,1.13H330.46l41.78,41.78a13.69,13.69,0,0,1,0,19.35L354.36,1004l-.61.55h34.67l83.91-83.91a13.66,13.66,0,0,1,19.34,0l17.89,17.89a13.66,13.66,0,0,1,0,19.34l-46.68,46.68h38.24l-4.06-4.06a13.66,13.66,0,0,1,0-19.34l17.88-17.89a13.68,13.68,0,0,1,19.35,0l41.29,41.29H615.2l-84.67-84.66L512.65,902a13.69,13.69,0,0,1,0-19.35L658.83,736.43a13.66,13.66,0,0,1,19.34,0l17.89,17.88a13.68,13.68,0,0,1,0,19.35L577.44,892.28,689.66,1004.5h14L703,1004,599.45,900.39a13.68,13.68,0,0,1,0-19.35l17.89-17.89a35.28,35.28,0,0,1,14-5.88h93.22l-41-41a13.71,13.71,0,0,1,0-19.35L701.44,779a13.7,13.7,0,0,1,19.35,0L824.35,882.6a13.69,13.69,0,0,1,0,19.35l-17.88,17.89a34.16,34.16,0,0,1-14.15,5.09H698.46l41.78,41.78a13.69,13.69,0,0,1,0,19.35L722.36,1004l-.61.55h34.67l83.91-83.91a13.66,13.66,0,0,1,19.34,0l17.89,17.89a13.66,13.66,0,0,1,0,19.34l-46.68,46.68h38.24l-4.06-4.06a13.66,13.66,0,0,1,0-19.34l17.88-17.89a13.68,13.68,0,0,1,19.35,0l41.29,41.29H981.2l-85.67-85.66L877.65,901a13.69,13.69,0,0,1,0-19.35l146.18-146.17a13.66,13.66,0,0,1,19.34,0l17.89,17.88a13.68,13.68,0,0,1,0,19.35L942.44,891.28l113.22,113.22h14.22A13.74,13.74,0,0,1,1068,1003L964.45,899.39a13.71,13.71,0,0,1,0-19.35l17.89-17.89a35.28,35.28,0,0,1,14-5.88h93.22l-41-41a13.71,13.71,0,0,1,0-19.35L1066.45,778a13.69,13.69,0,0,1,19.34,0L1189.35,881.6a13.68,13.68,0,0,1,0,19.35l-17.88,17.89a34.16,34.16,0,0,1-14.15,5.09h-93.86l41.78,41.78a13.68,13.68,0,0,1,0,19.35L1087.36,1003a13.74,13.74,0,0,1-1.87,1.55h34.93l84.91-84.91a13.66,13.66,0,0,1,19.34,0l17.89,17.89a13.68,13.68,0,0,1,0,19.35l-47.68,47.67h40.24l-5.06-5.06a13.66,13.66,0,0,1,0-19.34L1248,962.21a13.66,13.66,0,0,1,19.34,0l42.29,42.29h37.62l-86.67-86.66L1242.65,900a13.18,13.18,0,0,1-1.72-2.09,13.55,13.55,0,0,1-2.29-7.58h0a13.61,13.61,0,0,1,2.29-7.59,14.15,14.15,0,0,1,1.72-2.09l17.88-17.88,128.3-128.29a13.66,13.66,0,0,1,19.34,0l17.89,17.88a13.68,13.68,0,0,1,0,19.35L1307.44,890.28l114.22,114.22h14.9A14,14,0,0,1,1433,1002L1329.45,898.39a13.71,13.71,0,0,1,0-19.35l17.89-17.89a35.28,35.28,0,0,1,14-5.88h93.22l-41-41a13.71,13.71,0,0,1,0-19.35L1431.45,777a13.69,13.69,0,0,1,19.34,0L1554.35,880.6a13.68,13.68,0,0,1,0,19.35l-17.88,17.89a34.16,34.16,0,0,1-14.15,5.09h-93.86l41.78,41.78a13.68,13.68,0,0,1,0,19.35L1452.36,1002a14,14,0,0,1-3.55,2.55h35.61l85.91-85.91a13.66,13.66,0,0,1,19.34,0l17.89,17.89a13.68,13.68,0,0,1,0,19.35l-48.68,48.67h42.24l-6.06-6.06a13.66,13.66,0,0,1,0-19.34L1613,961.21a13.66,13.66,0,0,1,19.34,0l43.29,43.29h37.62l-87.67-87.66L1607.65,899a13.18,13.18,0,0,1-1.72-2.09,13.55,13.55,0,0,1-2.29-7.58h0a13.61,13.61,0,0,1,2.29-7.59,14.15,14.15,0,0,1,1.72-2.09l17.88-17.88,128.3-128.29a13.66,13.66,0,0,1,19.34,0l17.89,17.88a13.68,13.68,0,0,1,0,19.35L1672.44,889.28l115.22,115.22h16.58A13.6,13.6,0,0,1,1798,1001L1694.45,897.39a13.71,13.71,0,0,1,0-19.35l17.89-17.89a35.28,35.28,0,0,1,14-5.88h93.22l-41-41a13.71,13.71,0,0,1,0-19.35L1796.45,776a13.69,13.69,0,0,1,19.34,0L1919.35,879.6l.15.17v-31.3L1809.05,738l0,0-17.88-17.88a13.68,13.68,0,0,1,0-19.35L1809,682.89,1919.5,572.42V541.79l-.15.16-17.88,17.89a34.16,34.16,0,0,1-14.15,5.09h-93.86l41.78,41.78a13.68,13.68,0,0,1,0,19.35L1817.36,644a13.7,13.7,0,0,1-19.35,0L1694.45,540.39a13.71,13.71,0,0,1,0-19.35l17.89-17.89a35.28,35.28,0,0,1,14-5.88h93.22l-41-41a13.71,13.71,0,0,1,0-19.35L1796.45,419a13.69,13.69,0,0,1,19.34,0L1919.35,522.6l.15.17v-31.3L1809,381ZM1609.65,159.6l17.88-17.88,128.3-128.29a13.66,13.66,0,0,1,19.34,0l17.89,17.88a13.68,13.68,0,0,1,0,19.35L1674.44,169.28,1793.06,287.9a13.68,13.68,0,0,1,0,19.35l-17.89,17.88a13.66,13.66,0,0,1-19.34,0L1627.54,196.85h0L1609.65,179a13.68,13.68,0,0,1,0-19.35Zm44.09,269.28a13.68,13.68,0,0,1,0,19.35l-17.88,17.88a13.68,13.68,0,0,1-19.35,0L1513,362.55a13.69,13.69,0,0,1,0-19.34l17.89-17.89a35.28,35.28,0,0,1,14-5.88h93.22l-41-41a13.69,13.69,0,0,1,0-19.34L1615,241.21a13.66,13.66,0,0,1,19.34,0l103.56,103.56a13.68,13.68,0,0,1,0,19.35L1720,382a34.44,34.44,0,0,1-14.15,5.1H1612ZM1582,194.59a13.59,13.59,0,0,1,9.67,4l17.89,17.89a13.68,13.68,0,0,1,0,19.35L1490.94,354.44l118.62,118.62a13.68,13.68,0,0,1,0,19.35l-17.89,17.89a13.69,13.69,0,0,1-19.34,0L1444,382h0l-17.88-17.88a13.68,13.68,0,0,1,0-19.35L1444,326.89h0l128.3-128.3A13.59,13.59,0,0,1,1582,194.59ZM1470.24,607.71a13.68,13.68,0,0,1,0,19.35L1452.36,645a13.7,13.7,0,0,1-19.35,0L1329.45,541.39a13.71,13.71,0,0,1,0-19.35l17.89-17.89a35.28,35.28,0,0,1,14-5.88h93.22l-41-41a13.71,13.71,0,0,1,0-19.35L1431.45,420a13.69,13.69,0,0,1,19.34,0L1554.35,523.6a13.68,13.68,0,0,1,0,19.35l-17.88,17.89a34.16,34.16,0,0,1-14.15,5.09h-93.86ZM1443.12,53a13.59,13.59,0,0,1,9.67,4L1556.35,160.6a13.68,13.68,0,0,1,0,19.35l-17.88,17.89a34.16,34.16,0,0,1-14.15,5.09h-93.86l41.78,41.78a13.68,13.68,0,0,1,0,19.35L1454.36,282a13.7,13.7,0,0,1-19.35,0L1331.45,178.39a13.71,13.71,0,0,1,0-19.35l17.89-17.89a13.56,13.56,0,0,1,6.46-3.61,13.6,13.6,0,0,1,7.53-2.27h93.22l-41-41a13.71,13.71,0,0,1,0-19.35L1433.45,57A13.58,13.58,0,0,1,1443.12,53ZM1244.65,160.6l17.88-17.88,128.3-128.29a13.66,13.66,0,0,1,19.34,0l17.89,17.88a13.68,13.68,0,0,1,0,19.35L1309.44,170.28,1428.06,288.9a13.68,13.68,0,0,1,0,19.35l-17.89,17.88a13.66,13.66,0,0,1-19.34,0L1262.54,197.85h0L1244.65,180a13.68,13.68,0,0,1,0-19.35Zm44.09,269.28a13.68,13.68,0,0,1,0,19.35l-17.88,17.88a13.68,13.68,0,0,1-19.35,0L1148,363.55a13.69,13.69,0,0,1,0-19.34l17.89-17.89a35.28,35.28,0,0,1,14-5.88h93.22l-41-41a13.69,13.69,0,0,1,0-19.34L1250,242.21a13.66,13.66,0,0,1,19.34,0l103.56,103.56a13.68,13.68,0,0,1,0,19.35L1355,383a34.44,34.44,0,0,1-14.15,5.1H1247ZM1217,195.59a13.59,13.59,0,0,1,9.67,4l17.89,17.89a13.68,13.68,0,0,1,0,19.35L1125.94,355.44l118.62,118.62a13.68,13.68,0,0,1,0,19.35l-17.89,17.89a13.69,13.69,0,0,1-19.34,0L1079,383h0l-17.88-17.88a13.68,13.68,0,0,1,0-19.35L1079,327.89h0l128.3-128.3A13.59,13.59,0,0,1,1217,195.59ZM1105.24,608.71a13.68,13.68,0,0,1,0,19.35L1087.36,646a13.7,13.7,0,0,1-19.35,0L964.45,542.39a13.71,13.71,0,0,1,0-19.35l17.89-17.89a35.28,35.28,0,0,1,14-5.88h93.22l-41-41a13.71,13.71,0,0,1,0-19.35L1066.45,421a13.69,13.69,0,0,1,19.34,0L1189.35,524.6a13.68,13.68,0,0,1,0,19.35l-17.88,17.89a34.16,34.16,0,0,1-14.15,5.09h-93.86ZM1078.12,54a13.59,13.59,0,0,1,9.67,4L1191.35,161.6a13.68,13.68,0,0,1,0,19.35l-17.88,17.89a34.16,34.16,0,0,1-14.15,5.09h-93.86l41.78,41.78a13.68,13.68,0,0,1,0,19.35L1089.36,283a13.7,13.7,0,0,1-19.35,0L966.45,179.39a13.71,13.71,0,0,1,0-19.35l17.89-17.89a13.56,13.56,0,0,1,6.46-3.61,13.6,13.6,0,0,1,7.53-2.27h93.22l-41-41a13.71,13.71,0,0,1,0-19.35L1068.45,58A13.58,13.58,0,0,1,1078.12,54ZM879.65,161.6l17.88-17.88h0L1025.83,15.43a13.66,13.66,0,0,1,19.34,0l17.89,17.88a13.68,13.68,0,0,1,0,19.35L944.44,171.28,1063.06,289.9a13.68,13.68,0,0,1,0,19.35l-17.89,17.88a13.66,13.66,0,0,1-19.34,0L897.54,198.84h0L879.65,181a13.68,13.68,0,0,1,0-19.35Zm44.09,269.28a13.69,13.69,0,0,1,0,19.35l-17.88,17.88a13.68,13.68,0,0,1-19.35,0L783,364.55a13.69,13.69,0,0,1,0-19.34l17.88-17.89a35.4,35.4,0,0,1,14-5.88h93.23l-41-41a13.69,13.69,0,0,1,0-19.34l17.88-17.89a13.68,13.68,0,0,1,19.35,0l103.56,103.56a13.68,13.68,0,0,1,0,19.35L990,384a34.44,34.44,0,0,1-14.15,5.1H882ZM852,196.59a13.59,13.59,0,0,1,9.67,4l17.89,17.89a13.66,13.66,0,0,1,0,19.34L760.94,356.44,879.56,475.06a13.68,13.68,0,0,1,0,19.35L861.67,512.3a13.69,13.69,0,0,1-19.34,0L714,384h0l-17.88-17.88a13.68,13.68,0,0,1,0-19.35L714,328.89h0L842.33,200.59A13.59,13.59,0,0,1,852,196.59ZM740.24,609.71a13.69,13.69,0,0,1,0,19.35L722.36,647A13.7,13.7,0,0,1,703,647L599.45,543.39a13.68,13.68,0,0,1,0-19.35l17.89-17.89a35.28,35.28,0,0,1,14-5.88h93.22l-41-41a13.68,13.68,0,0,1,0-19.35L701.44,422a13.7,13.7,0,0,1,19.35,0L824.35,525.6a13.69,13.69,0,0,1,0,19.35l-17.88,17.89a34.16,34.16,0,0,1-14.15,5.09H698.46ZM713.12,55a13.59,13.59,0,0,1,9.67,4L826.35,162.6a13.69,13.69,0,0,1,0,19.35l-17.88,17.89a34.16,34.16,0,0,1-14.15,5.09H700.46l41.78,41.78a13.69,13.69,0,0,1,0,19.35L724.36,284A13.7,13.7,0,0,1,705,284L601.45,180.39a13.68,13.68,0,0,1,0-19.35l17.88-17.89a13.64,13.64,0,0,1,6.47-3.61,13.6,13.6,0,0,1,7.53-2.27h93.22l-41-41a13.68,13.68,0,0,1,0-19.35L703.44,59A13.62,13.62,0,0,1,713.12,55ZM514.65,162.6l17.88-17.88h0L660.83,16.43a13.66,13.66,0,0,1,19.34,0l17.89,17.88a13.71,13.71,0,0,1,0,19.35L579.44,172.28,698.06,290.9a13.68,13.68,0,0,1,0,19.35l-17.89,17.88a13.66,13.66,0,0,1-19.34,0L532.54,199.84h0L514.65,182a13.68,13.68,0,0,1,0-19.35Zm41.09,268.28a13.69,13.69,0,0,1,0,19.35l-17.88,17.88a13.68,13.68,0,0,1-19.35,0L415,364.55a13.69,13.69,0,0,1,0-19.34l17.88-17.89a35.4,35.4,0,0,1,14-5.88h93.22l-41-41a13.69,13.69,0,0,1,0-19.34l17.88-17.89a13.68,13.68,0,0,1,19.35,0L639.85,346.77a13.68,13.68,0,0,1,0,19.35L622,384a34.44,34.44,0,0,1-14.15,5.1H514ZM484,196.59a13.59,13.59,0,0,1,9.67,4l17.89,17.89a13.66,13.66,0,0,1,0,19.34L392.94,356.44,511.56,475.06a13.68,13.68,0,0,1,0,19.35L493.67,512.3a13.69,13.69,0,0,1-19.34,0L346,384h0l-17.88-17.88a13.68,13.68,0,0,1,0-19.35L346,328.89h0L474.33,200.59A13.59,13.59,0,0,1,484,196.59ZM372.24,609.71a13.69,13.69,0,0,1,0,19.35L354.36,647A13.7,13.7,0,0,1,335,647L231.45,543.39a13.68,13.68,0,0,1,0-19.35l17.89-17.89a13.56,13.56,0,0,1,6.46-3.61,13.6,13.6,0,0,1,7.53-2.27h93.22l-41-41a13.68,13.68,0,0,1,0-19.35L333.44,422a13.7,13.7,0,0,1,19.35,0L456.35,525.6a13.69,13.69,0,0,1,0,19.35l-17.88,17.89a13.62,13.62,0,0,1-8.71,4,13.72,13.72,0,0,1-5.44,1.13H330.46ZM345.12,55a13.59,13.59,0,0,1,9.67,4L458.35,162.6a13.69,13.69,0,0,1,0,19.35l-17.88,17.89a13.62,13.62,0,0,1-8.71,4,13.72,13.72,0,0,1-5.44,1.13H332.46l41.78,41.78a13.69,13.69,0,0,1,0,19.35L356.36,284A13.7,13.7,0,0,1,337,284L233.45,180.39a13.68,13.68,0,0,1,0-19.35l17.88-17.89a13.64,13.64,0,0,1,6.47-3.61,13.6,13.6,0,0,1,7.53-2.27h93.22l-41-41a13.68,13.68,0,0,1,0-19.35L335.44,59A13.62,13.62,0,0,1,345.12,55ZM146.65,182a13.68,13.68,0,0,1,0-19.35l17.88-17.88h0L292.83,16.43a13.66,13.66,0,0,1,19.34,0l17.89,17.88a13.71,13.71,0,0,1,0,19.35L211.44,172.28,330.06,290.9a13.68,13.68,0,0,1,0,19.35l-17.89,17.88a13.66,13.66,0,0,1-19.34,0L164.54,199.84h0ZM50,365.55a13.69,13.69,0,0,1,0-19.34l17.88-17.89a13.55,13.55,0,0,1,6.47-3.61,13.6,13.6,0,0,1,7.53-2.27h93.22l-41-41a13.69,13.69,0,0,1,0-19.34l17.88-17.89a13.68,13.68,0,0,1,19.35,0L274.85,347.77a13.68,13.68,0,0,1,0,19.35L257,385a13.57,13.57,0,0,1-8.71,4,13.55,13.55,0,0,1-5.44,1.14H149l41.78,41.78a13.69,13.69,0,0,1,0,19.35l-17.88,17.88a13.68,13.68,0,0,1-19.35,0Zm224.9,358.57L257,742a13.57,13.57,0,0,1-8.71,4,13.55,13.55,0,0,1-5.44,1.14H149l41.78,41.78a13.68,13.68,0,0,1,0,19.35l-17.88,17.88a13.68,13.68,0,0,1-19.35,0L50,722.55a13.66,13.66,0,0,1,0-19.34l17.89-17.89a13.48,13.48,0,0,1,6.46-3.61,13.6,13.6,0,0,1,7.53-2.27h93.22l-41-41a13.66,13.66,0,0,1,0-19.34l17.88-17.89a13.68,13.68,0,0,1,19.35,0L274.85,704.77a13.68,13.68,0,0,1,0,19.35Zm25.65-29a13.6,13.6,0,0,1-9.67-4L162.53,562.84,144.65,545a13.69,13.69,0,0,1,0-19.35L290.83,379.43a13.66,13.66,0,0,1,19.34,0l17.89,17.88a13.71,13.71,0,0,1,0,19.35L209.44,535.28,328.06,653.9a13.68,13.68,0,0,1,0,19.35l-17.89,17.88A13.6,13.6,0,0,1,300.5,695.14ZM511.56,851.41,493.67,869.3a13.69,13.69,0,0,1-19.34,0L346,741h0l-17.88-17.88a13.53,13.53,0,0,1-3.42-5.69,13.7,13.7,0,0,1,3.42-13.66L346,685.89l128.3-128.3a13.66,13.66,0,0,1,19.34,0l17.89,17.89a13.66,13.66,0,0,1,0,19.34L392.94,713.44,511.56,832.06a13.68,13.68,0,0,1,0,19.35ZM639.85,723.12,622,741a34.44,34.44,0,0,1-14.15,5.1H514l41.78,41.78a13.68,13.68,0,0,1,0,19.35l-17.88,17.88a13.68,13.68,0,0,1-19.35,0L415,721.55a13.66,13.66,0,0,1,0-19.34l17.89-17.89a35.28,35.28,0,0,1,14-5.88h93.22l-41-41a13.66,13.66,0,0,1,0-19.34l17.88-17.89a13.68,13.68,0,0,1,19.35,0L639.85,703.77a13.68,13.68,0,0,1,0,19.35Zm28.65-28a13.6,13.6,0,0,1-9.67-4L530.53,562.84,512.65,545a13.69,13.69,0,0,1,0-19.35L658.83,379.43a13.66,13.66,0,0,1,19.34,0l17.89,17.88a13.71,13.71,0,0,1,0,19.35L577.44,535.28,696.06,653.9a13.68,13.68,0,0,1,0,19.35l-17.89,17.88A13.6,13.6,0,0,1,668.5,695.14ZM879.56,851.41,861.67,869.3a13.69,13.69,0,0,1-19.34,0L714,741h0l-17.88-17.88a13.53,13.53,0,0,1-3.42-5.69,13.7,13.7,0,0,1,3.42-13.66L714,685.89l128.3-128.3a13.66,13.66,0,0,1,19.34,0l17.89,17.89a13.66,13.66,0,0,1,0,19.34L760.94,713.44,879.56,832.06a13.68,13.68,0,0,1,0,19.35Zm128.29-128.29L990,741a34.44,34.44,0,0,1-14.15,5.1H882l41.78,41.78a13.68,13.68,0,0,1,0,19.35l-17.88,17.88a13.68,13.68,0,0,1-19.35,0L783,721.55a13.66,13.66,0,0,1,0-19.34l17.89-17.89a35.28,35.28,0,0,1,14-5.88h93.22l-41-41a13.66,13.66,0,0,1,0-19.34l17.88-17.89a13.68,13.68,0,0,1,19.35,0l103.56,103.56a13.68,13.68,0,0,1,0,19.35Zm25.65-29a13.6,13.6,0,0,1-9.67-4L895.53,561.84,877.65,544a13.69,13.69,0,0,1,0-19.35l146.18-146.17a13.66,13.66,0,0,1,19.34,0l17.89,17.88a13.68,13.68,0,0,1,0,19.35L942.44,534.28,1061.06,652.9a13.68,13.68,0,0,1,0,19.35l-17.89,17.88A13.6,13.6,0,0,1,1033.5,694.14Zm211.06,156.27-17.89,17.89a13.69,13.69,0,0,1-19.34,0L1079.05,740l0,0-17.88-17.88a13.68,13.68,0,0,1,0-19.35L1079,684.89l128.3-128.3a13.66,13.66,0,0,1,19.34,0l17.89,17.89a13.68,13.68,0,0,1,0,19.35L1125.94,712.44l118.62,118.62a13.68,13.68,0,0,1,0,19.35Zm128.29-128.29L1355,740a34.44,34.44,0,0,1-14.15,5.1H1247l41.78,41.78a13.68,13.68,0,0,1,0,19.35l-17.88,17.88a13.68,13.68,0,0,1-19.35,0L1148,720.55a13.66,13.66,0,0,1,0-19.34l17.89-17.89a35.28,35.28,0,0,1,14-5.88h93.22l-41-41a13.66,13.66,0,0,1,0-19.34L1250,599.21a13.66,13.66,0,0,1,19.34,0l103.56,103.56a13.68,13.68,0,0,1,0,19.35Zm25.65-29a13.6,13.6,0,0,1-9.67-4l-128.3-128.29L1242.65,543a13.18,13.18,0,0,1-1.72-2.09,13.55,13.55,0,0,1-2.29-7.58h0a13.61,13.61,0,0,1,2.29-7.59,14.15,14.15,0,0,1,1.72-2.09l17.88-17.88,128.3-128.29a13.66,13.66,0,0,1,19.34,0l17.89,17.88a13.68,13.68,0,0,1,0,19.35L1307.44,533.28,1426.06,651.9a13.68,13.68,0,0,1,0,19.35l-17.89,17.88A13.6,13.6,0,0,1,1398.5,693.14Zm211.06,156.27-17.89,17.89a13.69,13.69,0,0,1-19.34,0L1444.05,739l0,0-17.88-17.88a13.68,13.68,0,0,1,0-19.35L1444,683.89l128.3-128.3a13.66,13.66,0,0,1,19.34,0l17.89,17.89a13.68,13.68,0,0,1,0,19.35L1490.94,711.44l118.62,118.62a13.68,13.68,0,0,1,0,19.35Zm128.29-128.29L1720,739a34.44,34.44,0,0,1-14.15,5.1H1612l41.78,41.78a13.68,13.68,0,0,1,0,19.35l-17.88,17.88a13.68,13.68,0,0,1-19.35,0L1513,719.55a13.66,13.66,0,0,1,0-19.34l17.89-17.89a35.28,35.28,0,0,1,14-5.88h93.22l-41-41a13.66,13.66,0,0,1,0-19.34L1615,598.21a13.66,13.66,0,0,1,19.34,0l103.56,103.56a13.68,13.68,0,0,1,0,19.35Zm53.21-307.46L1672.44,532.28,1791.06,650.9a13.68,13.68,0,0,1,0,19.35l-17.89,17.88a13.66,13.66,0,0,1-19.34,0l-128.3-128.29L1607.65,542a13.18,13.18,0,0,1-1.72-2.09,13.55,13.55,0,0,1-2.29-7.58h0a13.61,13.61,0,0,1,2.29-7.59,14.15,14.15,0,0,1,1.72-2.09l17.88-17.88,128.3-128.29a13.66,13.66,0,0,1,19.34,0l17.89,17.88a13.68,13.68,0,0,1,0,19.35Z"/><path class="cls-1" d="M1878,342.21l17.89-17.89a35.28,35.28,0,0,1,14-5.88h9.67V289.88l-63.56,63.56L1919.5,417V403.1L1878,361.55A13.69,13.69,0,0,1,1878,342.21Z"/><polygon class="cls-1" points="1919.5 38.1 1880.9 -0.5 1866.99 -0.5 1919.5 52.01 1919.5 38.1"/><path class="cls-1" d="M1919.5,774V760.1L1878,718.55a13.66,13.66,0,0,1,0-19.34l17.89-17.89a35.28,35.28,0,0,1,14-5.88h9.67V646.88l-63.56,63.56Z"/><path class="cls-1" d="M1901.47,916.84a34.16,34.16,0,0,1-14.15,5.09h-93.86l41.78,41.78a13.68,13.68,0,0,1,0,19.35L1817.36,1001a13.6,13.6,0,0,1-6.23,3.55h37.29l71.08-71.08V898.79l-.15.16Z"/></svg>